<?xml version="1.0" encoding="UTF-8"?>
<svg width="3px" height="44px" viewBox="0 0 3 44" version="1.1" xmlns="http://www.w3.org/2000/svg" xmlns:xlink="http://www.w3.org/1999/xlink">
    <title>Path 3</title>
    <g id="Page-1" stroke="none" stroke-width="1" fill="none" fill-rule="evenodd">
        <g id="Path-3" fill="#020203" fill-rule="nonzero">
            <path d="M0,0.941691268 C0,1.53972333 0,2.1377554 0,2.83545948 C0,3.43349154 0.103448276,4.03152361 0.103448276,4.62955567 C0.206896552,5.72594779 0.310344828,6.82233991 0.310344828,7.91873203 C0.413793103,9.01512416 0.413793103,10.2111883 0.413793103,11.3075804 C0.413793103,12.4039725 0.517241379,13.6000367 0.517241379,14.6964288 C0.724137931,19.2813413 0.620689655,23.8662538 0.620689655,28.5508383 C0.620689655,30.7436225 0.620689655,32.9364068 0.620689655,35.228863 C0.620689655,36.3252552 0.620689655,37.5213193 0.620689655,38.6177114 C0.620689655,39.7141035 0.620689655,40.7108236 0.620689655,41.8072158 C0.620689655,42.2059038 0.724137931,42.5049198 0.724137931,42.9036079 C0.724137931,43.2026239 0.827586207,43.4019679 1.03448276,43.700984 C1.24137931,43.900328 1.55172414,44 1.86206897,44 C2.48275862,44 3,43.5016399 3,42.9036079 C3,42.3055758 2.89655172,41.7075437 2.89655172,41.2091837 C2.89655172,40.7108236 2.89655172,40.2124636 2.89655172,39.7141035 C2.89655172,38.6177114 2.89655172,37.5213193 2.89655172,36.4249272 C2.89655172,34.2321429 2.89655172,31.9396867 2.89655172,29.7469024 C2.89655172,27.4544462 2.89655172,25.1619899 2.89655172,22.8695337 C2.89655172,20.6767494 2.89655172,18.3842932 2.79310345,16.1915089 C2.79310345,14.9954448 2.68965517,13.7993807 2.5862069,12.6033165 C2.48275862,11.5069244 2.5862069,10.3108603 2.48275862,9.21446818 C2.37931034,6.92201192 2.06896552,4.62955567 2.06896552,2.33709942 C2.06896552,1.93841138 2.06896552,1.53972333 2.06896552,1.14103529 C2.06896552,0.543003224 1.55172414,0.0446431691 0.931034483,0.0446431691 C0.517241379,-0.154700853 0,0.343659202 0,0.941691268 L0,0.941691268 L0,0.941691268 Z" id="Path"></path>
        </g>
    </g>
</svg>