<?xml version="1.0" encoding="UTF-8"?>
<svg width="127px" height="2px" viewBox="0 0 127 2" version="1.1" xmlns="http://www.w3.org/2000/svg" xmlns:xlink="http://www.w3.org/1999/xlink">
    <title>Path 2</title>
    <g id="Page-1" stroke="none" stroke-width="1" fill="none" fill-rule="evenodd">
        <g id="Path-2" transform="translate(63.500000, 1.000000) scale(-1, 1) translate(-63.500000, -1.000000) " fill="#bfc9d0" fill-rule="nonzero">
            <path d="M82.6196003,0.0909090909 C66.9800129,0.0909090909 51.4223082,0.0909090909 35.7827208,0.0909090909 C29.8871696,0.0909090909 24.073501,0.0909090909 18.1779497,0.181818182 C12.3642811,0.181818182 6.55061251,0.272727273 0.736943907,0.272727273 C0.327530625,0.272727273 0,0.636363636 0,1.09090909 C0,1.54545455 0.327530625,1.90909091 0.736943907,1.90909091 C8.27014829,1.90909091 15.72147,2 23.2546744,2 C31.1154094,2 38.9761444,2 46.8368794,2 C62.3945841,2 77.9522888,2 93.5099936,2 C97.4403611,2 101.452611,2 105.382979,2 C112.261122,2 119.221148,2 126.099291,2 C126.590587,2 127,1.54545455 127,1 C127,0.454545455 126.590587,0 126.099291,0 C111.687943,0.0909090909 97.1128304,0.0909090909 82.6196003,0.0909090909 L82.6196003,0.0909090909 L82.6196003,0.0909090909 Z" id="Path"></path>
        </g>
    </g>
</svg>
