<?xml version="1.0" encoding="UTF-8"?>
<svg width="6px" height="47px" viewBox="0 0 6 47" version="1.1" xmlns="http://www.w3.org/2000/svg" xmlns:xlink="http://www.w3.org/1999/xlink">
    <title>Group</title>
    <g id="Page-1" stroke="none" stroke-width="1" fill="none" fill-rule="evenodd">
        <g id="Group" fill="#020203" fill-rule="nonzero">
            <path d="M0.0140118037,2.98901099 C0.121741214,4.17582418 0.121741214,5.36263736 0.121741214,6.54945055 C0.121741214,7.63736264 0.229470625,8.82417582 0.229470625,9.91208791 C0.229470625,11.0989011 0.229470625,12.1868132 0.229470625,13.3736264 C0.229470625,14.5604396 0.337200036,15.8461538 0.337200036,17.032967 C0.337200036,17.6263736 0.337200036,18.1208791 0.337200036,18.7142857 C0.337200036,19.3076923 0.444929446,19.9010989 0.444929446,20.5934066 C0.552658857,21.7802198 0.552658857,22.8681319 0.552658857,24.0549451 C0.660388268,25.2417582 0.660388268,26.3296703 0.768117679,27.5164835 C0.768117679,28.7032967 0.875847089,29.8901099 0.9835765,31.0769231 C1.09130591,32.2637363 1.09130591,33.3516484 1.09130591,34.5384615 C1.19903532,35.6263736 1.19903532,36.7142857 1.30676473,37.8021978 C1.30676473,38.8901099 1.30676473,40.0769231 1.41449414,41.1648352 C1.52222355,42.1538462 1.62995296,43.1428571 1.62995296,44.2307692 C1.62995296,44.5274725 1.62995296,44.8241758 1.62995296,45.021978 C1.62995296,45.4175824 1.73768238,45.8131868 1.73768238,46.2087912 C1.73768238,46.4065934 1.84541179,46.5054945 2.06087061,46.7032967 C2.27632943,46.9010989 2.59951766,47 2.81497648,47 C3.35362354,47 4,46.5054945 4,45.9120879 C4,45.4175824 3.89227059,44.8241758 3.89227059,44.3296703 C3.89227059,43.8351648 3.89227059,43.3406593 3.89227059,42.8461538 C3.89227059,42.2527473 3.78454118,41.7582418 3.78454118,41.1648352 C3.78454118,40.5714286 3.78454118,40.0769231 3.78454118,39.4835165 C3.78454118,38.3956044 3.78454118,37.2087912 3.67681177,36.1208791 C3.56908236,34.9340659 3.46135295,33.8461538 3.46135295,32.6593407 C3.46135295,31.5714286 3.35362354,30.3846154 3.24589413,29.2967033 C3.13816471,28.1098901 3.13816471,27.021978 3.0304353,25.8351648 C2.92270589,24.7472527 2.81497648,23.5604396 2.81497648,22.4725275 C2.81497648,21.2857143 2.70724707,20 2.59951766,18.8131868 C2.49178825,17.6263736 2.49178825,16.4395604 2.49178825,15.3516484 C2.49178825,14.7582418 2.38405884,14.1648352 2.38405884,13.5714286 C2.38405884,12.978022 2.38405884,12.4835165 2.27632943,11.8901099 C2.27632943,10.7032967 2.16860002,9.61538462 2.06087061,8.42857143 C2.06087061,7.83516484 1.9531412,7.34065934 1.9531412,6.74725275 C1.9531412,6.15384615 1.9531412,5.56043956 1.84541179,5.06593407 C1.84541179,4.37362637 1.73768238,3.68131868 1.73768238,2.89010989 C1.73768238,2.3956044 1.30676473,2 0.768117679,2 C0.444929446,2.0989011 -0.0937176071,2.49450549 0.0140118037,2.98901099 L0.0140118037,2.98901099 L0.0140118037,2.98901099 Z" id="Path"></path>
            <path d="M2.56704981,1.68874172 C2.56704981,1.78807947 2.56704981,1.88741722 2.6743295,1.98675497 C2.7816092,2.48344371 2.7816092,2.98013245 2.7816092,3.47682119 C2.88888889,4.07284768 2.88888889,4.66887417 2.99616858,5.26490066 C3.10344828,5.86092715 3.10344828,6.35761589 3.21072797,6.95364238 C3.21072797,7.54966887 3.31800766,8.04635762 3.31800766,8.64238411 C3.42528736,9.83443709 3.42528736,10.9271523 3.53256705,12.1192053 C3.63984674,13.2119205 3.63984674,14.4039735 3.74712644,15.4966887 C3.85440613,17.781457 3.74712644,20.0662252 3.74712644,22.4503311 C3.74712644,24.7350993 3.74712644,26.9205298 3.74712644,29.205298 C3.74712644,33.7748344 3.74712644,38.2450331 3.85440613,42.8145695 C3.85440613,43.2119205 3.85440613,43.6092715 3.85440613,44.0066225 C3.85440613,44.602649 4.3908046,45 4.92720307,45 C5.46360153,45 6,44.5033113 6,44.0066225 C6,42.8145695 6,41.6225166 6,40.5298013 C6,39.4370861 6,38.3443709 6,37.2516556 C6,34.9668874 6,32.6821192 6,30.2980132 C6,28.013245 6,25.8278146 6,23.5430464 C6,21.2582781 6,18.9735099 6,16.6887417 C6,15.4966887 5.89272031,14.4039735 5.89272031,13.3112583 C5.78544061,12.218543 5.67816092,11.1258278 5.67816092,9.93377483 C5.67816092,9.33774834 5.57088123,8.74172185 5.46360153,8.24503311 C5.35632184,7.64900662 5.35632184,7.05298013 5.24904215,6.45695364 C5.14176245,5.26490066 4.92720307,4.07284768 4.71264368,2.8807947 C4.71264368,2.98013245 4.71264368,3.0794702 4.71264368,3.0794702 C4.60536398,2.48344371 4.60536398,1.98675497 4.3908046,1.39072848 C4.3908046,1.29139073 4.2835249,1.19205298 4.2835249,0.993377483 C4.17624521,0.695364238 4.06896552,0.496688742 3.85440613,0.298013245 C3.85440613,0.0993377483 3.53256705,0 3.21072797,0 C2.88888889,0 2.45977011,1.78807947 2.56704981,1.68874172 Z" id="Shape"></path>
        </g>
    </g>
</svg>