<?xml version="1.0" encoding="UTF-8"?>
<svg width="120px" height="4px" viewBox="0 0 120 4" version="1.1" xmlns="http://www.w3.org/2000/svg" xmlns:xlink="http://www.w3.org/1999/xlink">
    <title>Group 2</title>
    <g id="Page-1" stroke="none" stroke-width="1" fill="none" fill-rule="evenodd">
        <g id="Group-2" transform="translate(0.000000, -0.000000)" fill="#020203" fill-rule="nonzero">
            <path d="M75.4747322,0.382096315 C74.2717645,0.382096315 72.9685496,0.477620394 71.7655819,0.477620394 C70.4623669,0.477620394 69.0589047,0.573144472 67.7556897,0.573144472 C66.552722,0.573144472 65.2495071,0.573144472 64.0465394,0.668668551 C62.8435717,0.668668551 61.5403568,0.76419263 60.3373891,0.76419263 C59.0341741,0.76419263 57.7309592,0.76419263 56.4277442,0.668668551 C55.1245292,0.668668551 53.9215616,0.573144472 52.6183466,0.573144472 C51.4153789,0.573144472 50.112164,0.573144472 48.9091963,0.573144472 C47.7062286,0.573144472 46.4030137,0.668668551 45.200046,0.668668551 C43.9970783,0.76419263 42.6938634,0.76419263 41.4908957,0.859716708 C40.3881754,0.859716708 39.1852077,0.859716708 38.0824873,0.859716708 C36.8795197,0.859716708 35.676552,0.859716708 34.4735843,0.955240787 C33.2706167,0.955240787 31.9674017,0.955240787 30.7644341,0.859716708 C28.2582514,0.859716708 25.7520688,0.955240787 23.2458862,0.955240787 C22.0429185,0.955240787 20.7397035,1.05076487 19.5367359,0.955240787 C18.2335209,0.955240787 17.0305532,0.859716708 15.7273383,0.859716708 C14.5243706,0.859716708 13.2211556,1.05076487 12.018188,1.14628894 C11.4167041,1.14628894 10.8152203,1.24181302 10.2137365,1.24181302 C9.61225265,1.24181302 9.01076882,1.24181302 8.50953229,1.3373371 C7.20631732,1.43286118 6.00334966,1.52838526 4.800382,1.62390934 C4.19889816,1.71943342 3.49716703,1.71943342 2.8956832,1.8149575 C2.59494128,1.8149575 2.29419936,1.91048157 1.99345745,1.91048157 C1.69271553,1.91048157 1.29172631,2.00600565 0.990984396,2.10152973 C0.289253259,2.38810197 1.19147901,3.43886683 1.59246823,3.1522946 C1.69271553,3.1522946 1.79296284,3.05677052 1.79296284,3.05677052 C1.99345745,3.05677052 2.19395206,2.96124644 2.49469397,2.96124644 C2.79543589,2.96124644 3.09617781,2.86572236 3.49716703,2.86572236 C4.09865086,2.86572236 4.800382,2.77019828 5.40186583,2.6746742 C6.70508079,2.57915013 7.90804846,2.48362605 9.21126343,2.38810197 C10.4142311,2.38810197 11.6171988,2.38810197 12.7199191,2.29257789 C13.9228868,2.19705381 15.2261017,2.10152973 16.4290694,2.10152973 C17.7322844,2.10152973 18.935252,2.19705381 20.238467,2.19705381 C21.4414347,2.19705381 22.7446496,2.19705381 23.9476173,2.19705381 C26.4537999,2.19705381 28.9599826,2.00600565 31.4661652,2.10152973 C32.6691329,2.10152973 33.9723478,2.19705381 35.1753155,2.10152973 C36.3782831,2.10152973 37.5812508,2.10152973 38.6839712,2.10152973 C39.8869388,2.10152973 40.9896592,2.10152973 42.1926269,2.10152973 C43.3955945,2.10152973 44.5985622,2.00600565 45.8015298,1.91048157 C48.3077125,1.8149575 50.8138951,1.8149575 53.3200777,1.8149575 C54.6232927,1.8149575 55.9265077,1.91048157 57.1294753,2.00600565 C58.4326903,2.10152973 59.7359053,2.10152973 60.9388729,2.10152973 C62.2420879,2.10152973 63.4450556,2.10152973 64.7482705,2.00600565 C66.0514855,2.00600565 67.2544532,2.00600565 68.5576681,2.00600565 C69.8608831,2.00600565 71.1640981,1.91048157 72.3670657,1.91048157 C73.6702807,1.91048157 75.073743,1.8149575 76.3769579,1.8149575 C78.8831406,1.71943342 81.4895705,1.8149575 83.9957531,1.8149575 C86.6021831,1.8149575 89.1083657,1.8149575 91.7147956,1.8149575 C95.5241932,1.8149575 99.3335908,1.8149575 103.142988,2.00600565 C104.045214,2.10152973 104.847193,2.10152973 105.749418,2.19705381 C105.649171,2.19705381 105.548924,2.19705381 105.448676,2.19705381 C105.649171,2.19705381 105.849666,2.19705381 106.05016,2.19705381 C105.949913,2.19705381 105.849666,2.19705381 105.749418,2.19705381 C106.350902,2.19705381 106.952386,2.29257789 107.55387,2.29257789 C108.155354,2.29257789 108.756838,2.29257789 109.258074,2.38810197 C110.360794,2.38810197 111.463515,2.48362605 112.566235,2.48362605 C113.067472,2.48362605 113.668955,2.48362605 114.170192,2.48362605 C114.771676,2.48362605 115.272912,2.48362605 115.874396,2.48362605 C116.375633,2.48362605 116.977117,2.48362605 117.478353,2.48362605 C118.079837,2.48362605 118.681321,2.48362605 119.182557,2.48362605 C119.683794,2.48362605 120.084783,2.00600565 119.984536,1.52838526 C119.984536,1.3373371 119.884288,1.05076487 119.683794,0.955240787 C119.483299,0.76419263 119.282805,0.76419263 118.982063,0.76419263 C118.881815,0.76419263 118.781568,0.76419263 118.581073,0.76419263 C117.5786,0.668668551 116.576127,0.668668551 115.573654,0.668668551 C115.072418,0.668668551 114.470934,0.668668551 113.969697,0.668668551 C113.368214,0.668668551 112.866977,0.668668551 112.265493,0.573144472 C111.162773,0.573144472 110.1603,0.477620394 109.057579,0.477620394 C107.954859,0.382096315 106.952386,0.382096315 105.849666,0.382096315 C104.546451,0.286572236 103.243236,0.191048157 101.940021,0.0955240787 C100.737053,0 99.5340855,0 98.3311178,0 C97.5291394,0 96.6269136,0 95.8249352,0 C95.4239459,0 95.0229567,0 94.6219675,0 C93.3187525,0 92.1157849,0 90.8125699,0 C89.1083657,0 87.4041615,0 85.6999573,0 C85.0984735,0.286572236 84.2964951,0.286572236 83.3942693,0.286572236 C80.7878394,0.286572236 78.0811621,0.286572236 75.4747322,0.382096315 Z" id="Path"></path>
        </g>
    </g>
</svg>