<?xml version="1.0" encoding="UTF-8"?>
<svg width="128px" height="51px" viewBox="0 0 128 51" version="1.1" xmlns="http://www.w3.org/2000/svg" xmlns:xlink="http://www.w3.org/1999/xlink">
    <title>Artboard</title>
    <g id="Artboard" stroke="none" stroke-width="1" fill="none" fill-rule="evenodd">
        <path d="M83.6196003,49.0909091 C67.9800129,49.0909091 52.4223082,49.0909091 36.7827208,49.0909091 C30.8871696,49.0909091 25.073501,49.0909091 19.1779497,49.1818182 C13.3642811,49.1818182 7.55061251,49.2727273 1.73694391,49.2727273 C1.32753063,49.2727273 1,49.6363636 1,50.0909091 C1,50.5454545 1.32753063,50.9090909 1.73694391,50.9090909 C9.27014829,50.9090909 16.72147,51 24.2546744,51 C32.1154094,51 39.9761444,51 47.8368794,51 C63.3945841,51 78.9522888,51 94.5099936,51 C98.4403611,51 102.452611,51 106.382979,51 C113.261122,51 120.221148,51 127.099291,51 C127.590587,51 128,50.5454545 128,50 C128,49.4545455 127.590587,49 127.099291,49 C112.687943,49.0909091 98.1128304,49.0909091 83.6196003,49.0909091 L83.6196003,49.0909091 L83.6196003,49.0909091 Z" id="Path" fill="#020203" fill-rule="nonzero"></path>
        <path d="M37.4,5.05798283 C31.3,5.05798283 25.2,5.14625634 19,5.14625634 C15.9,5.14625634 12.7,5.14625634 9.6,5.23452984 C6.7,5.23452984 3.7,5.32280335 0.8,5.32280335 C0.4,5.32280335 0,5.67589738 0,6.02899141 C0,6.38208545 0.4,6.73517948 0.8,6.73517948 C4.3,6.73517948 7.8,6.82345298 11.3,6.82345298 C15.1,6.82345298 18.9,6.91172649 22.7,6.91172649 C30,6.91172649 37.3,7 44.6,7 C59.6,7 74.6,7 89.6,7 C95.6,7 101.6,6.91172649 107.6,6.82345298 C110.4,6.82345298 113.2,6.73517948 115.9,6.73517948 C117.1,6.73517948 118.3,6.73517948 119.4,6.73517948 C120,6.73517948 120.6,6.73517948 121.2,6.73517948 C121.5,6.73517948 121.8,6.73517948 122.2,6.73517948 C122.4,6.73517948 122.6,6.64690597 122.8,6.55863246 C123,6.38208545 123,6.20553843 123,6.02899141 C123,5.8524444 122.9,5.67589738 122.8,5.49935037 C122.6,5.32280335 122.4,5.32280335 122.2,5.32280335 C121.9,5.32280335 121.6,5.32280335 121.4,5.32280335 C121.3,5.32280335 121.2,5.32280335 121.1,5.32280335 C120.4,5.32280335 119.6,5.32280335 118.9,5.32280335 C117.4,5.32280335 115.8,5.32280335 114.3,5.32280335 C111,5.32280335 107.6,5.23452984 104.3,5.23452984 C97,5.14625634 89.6,5.14625634 82.3,5.14625634 C77.4,5.14625634 72.5,5.14625634 67.7,5.14625634 C57.5,4.96970932 47.4,4.96970932 37.4,5.05798283 L37.4,5.05798283 L37.4,5.05798283 Z" id="Path" fill="#020203" fill-rule="nonzero"></path>
        <path d="M122.014012,5.98901099 C122.121741,7.17582418 122.121741,8.36263736 122.121741,9.54945055 C122.121741,10.6373626 122.229471,11.8241758 122.229471,12.9120879 C122.229471,14.0989011 122.229471,15.1868132 122.229471,16.3736264 C122.229471,17.5604396 122.3372,18.8461538 122.3372,20.032967 C122.3372,20.6263736 122.3372,21.1208791 122.3372,21.7142857 C122.3372,22.3076923 122.444929,22.9010989 122.444929,23.5934066 C122.552659,24.7802198 122.552659,25.8681319 122.552659,27.0549451 C122.660388,28.2417582 122.660388,29.3296703 122.768118,30.5164835 C122.768118,31.7032967 122.875847,32.8901099 122.983577,34.0769231 C123.091306,35.2637363 123.091306,36.3516484 123.091306,37.5384615 C123.199035,38.6263736 123.199035,39.7142857 123.306765,40.8021978 C123.306765,41.8901099 123.306765,43.0769231 123.414494,44.1648352 C123.522224,45.1538462 123.629953,46.1428571 123.629953,47.2307692 C123.629953,47.5274725 123.629953,47.8241758 123.629953,48.021978 C123.629953,48.4175824 123.737682,48.8131868 123.737682,49.2087912 C123.737682,49.4065934 123.845412,49.5054945 124.060871,49.7032967 C124.276329,49.9010989 124.599518,50 124.814976,50 C125.353624,50 126,49.5054945 126,48.9120879 C126,48.4175824 125.892271,47.8241758 125.892271,47.3296703 C125.892271,46.8351648 125.892271,46.3406593 125.892271,45.8461538 C125.892271,45.2527473 125.784541,44.7582418 125.784541,44.1648352 C125.784541,43.5714286 125.784541,43.0769231 125.784541,42.4835165 C125.784541,41.3956044 125.784541,40.2087912 125.676812,39.1208791 C125.569082,37.9340659 125.461353,36.8461538 125.461353,35.6593407 C125.461353,34.5714286 125.353624,33.3846154 125.245894,32.2967033 C125.138165,31.1098901 125.138165,30.021978 125.030435,28.8351648 C124.922706,27.7472527 124.814976,26.5604396 124.814976,25.4725275 C124.814976,24.2857143 124.707247,23 124.599518,21.8131868 C124.491788,20.6263736 124.491788,19.4395604 124.491788,18.3516484 C124.491788,17.7582418 124.384059,17.1648352 124.384059,16.5714286 C124.384059,15.978022 124.384059,15.4835165 124.276329,14.8901099 C124.276329,13.7032967 124.1686,12.6153846 124.060871,11.4285714 C124.060871,10.8351648 123.953141,10.3406593 123.953141,9.74725275 C123.953141,9.15384615 123.953141,8.56043956 123.845412,8.06593407 C123.845412,7.37362637 123.737682,6.68131868 123.737682,5.89010989 C123.737682,5.3956044 123.306765,5 122.768118,5 C122.444929,5.0989011 121.906282,5.49450549 122.014012,5.98901099 L122.014012,5.98901099 L122.014012,5.98901099 Z" id="Path" fill="#020203" fill-rule="nonzero"></path>
        <path d="M125.210728,3 C124.888889,3 124.56705,3.09933775 124.245211,3.29801325 C123.816092,3.59602649 123.386973,3.89403974 122.850575,4.19205298 C122.314176,4.58940397 121.777778,5.08609272 121.241379,5.48344371 C120.91954,5.78145695 120.91954,6.2781457 121.241379,6.47682119 C121.563218,6.77483444 122.099617,6.77483444 122.314176,6.47682119 C122.743295,6.0794702 123.279693,5.68211921 123.708812,5.28476821 C123.923372,5.18543046 124.030651,5.08609272 124.245211,4.88741722 C124.35249,4.78807947 124.45977,4.78807947 124.56705,4.68874172 C124.56705,4.78807947 124.56705,4.88741722 124.67433,4.98675497 C124.781609,5.48344371 124.781609,5.98013245 124.781609,6.47682119 C124.888889,7.07284768 124.888889,7.66887417 124.996169,8.26490066 C125.103448,8.86092715 125.103448,9.35761589 125.210728,9.95364238 C125.210728,10.5496689 125.318008,11.0463576 125.318008,11.6423841 C125.425287,12.8344371 125.425287,13.9271523 125.532567,15.1192053 C125.639847,16.2119205 125.639847,17.4039735 125.747126,18.4966887 C125.854406,20.781457 125.747126,23.0662252 125.747126,25.4503311 C125.747126,27.7350993 125.747126,29.9205298 125.747126,32.205298 C125.747126,36.7748344 125.747126,41.2450331 125.854406,45.8145695 C125.854406,46.2119205 125.854406,46.6092715 125.854406,47.0066225 C125.854406,47.602649 126.390805,48 126.927203,48 C127.463602,48 128,47.5033113 128,47.0066225 C128,45.8145695 128,44.6225166 128,43.5298013 C128,42.4370861 128,41.3443709 128,40.2516556 C128,37.9668874 128,35.6821192 128,33.2980132 C128,31.013245 128,28.8278146 128,26.5430464 C128,24.2582781 128,21.9735099 128,19.6887417 C128,18.4966887 127.89272,17.4039735 127.89272,16.3112583 C127.785441,15.218543 127.678161,14.1258278 127.678161,12.9337748 C127.678161,12.3377483 127.570881,11.7417219 127.463602,11.2450331 C127.356322,10.6490066 127.356322,10.0529801 127.249042,9.45695364 C127.141762,8.26490066 126.927203,7.07284768 126.712644,5.8807947 C126.712644,5.98013245 126.712644,6.0794702 126.712644,6.0794702 C126.605364,5.48344371 126.605364,4.98675497 126.390805,4.39072848 C126.390805,4.29139073 126.283525,4.19205298 126.283525,3.99337748 C126.176245,3.69536424 126.068966,3.49668874 125.854406,3.29801325 C125.854406,3.09933775 125.532567,3 125.210728,3 C125.210728,3 125.210728,3 125.210728,3 L125.210728,3 L125.210728,3 Z M123.816092,5.28476821 C123.816092,5.28476821 123.708812,5.38410596 123.708812,5.38410596 C123.816092,5.38410596 123.816092,5.38410596 123.816092,5.28476821 L123.816092,5.28476821 L123.816092,5.28476821 Z" id="Shape" fill="#020203" fill-rule="nonzero"></path>
        <path d="M0,6.94169127 C0,7.53972333 0,8.1377554 0,8.83545948 C0,9.43349154 0.103448276,10.0315236 0.103448276,10.6295557 C0.206896552,11.7259478 0.310344828,12.8223399 0.310344828,13.918732 C0.413793103,15.0151242 0.413793103,16.2111883 0.413793103,17.3075804 C0.413793103,18.4039725 0.517241379,19.6000367 0.517241379,20.6964288 C0.724137931,25.2813413 0.620689655,29.8662538 0.620689655,34.5508383 C0.620689655,36.7436225 0.620689655,38.9364068 0.620689655,41.228863 C0.620689655,42.3252552 0.620689655,43.5213193 0.620689655,44.6177114 C0.620689655,45.7141035 0.620689655,46.7108236 0.620689655,47.8072158 C0.620689655,48.2059038 0.724137931,48.5049198 0.724137931,48.9036079 C0.724137931,49.2026239 0.827586207,49.4019679 1.03448276,49.700984 C1.24137931,49.900328 1.55172414,50 1.86206897,50 C2.48275862,50 3,49.5016399 3,48.9036079 C3,48.3055758 2.89655172,47.7075437 2.89655172,47.2091837 C2.89655172,46.7108236 2.89655172,46.2124636 2.89655172,45.7141035 C2.89655172,44.6177114 2.89655172,43.5213193 2.89655172,42.4249272 C2.89655172,40.2321429 2.89655172,37.9396867 2.89655172,35.7469024 C2.89655172,33.4544462 2.89655172,31.1619899 2.89655172,28.8695337 C2.89655172,26.6767494 2.89655172,24.3842932 2.79310345,22.1915089 C2.79310345,20.9954448 2.68965517,19.7993807 2.5862069,18.6033165 C2.48275862,17.5069244 2.5862069,16.3108603 2.48275862,15.2144682 C2.37931034,12.9220119 2.06896552,10.6295557 2.06896552,8.33709942 C2.06896552,7.93841138 2.06896552,7.53972333 2.06896552,7.14103529 C2.06896552,6.54300322 1.55172414,6.04464317 0.931034483,6.04464317 C0.517241379,5.84529915 0,6.3436592 0,6.94169127 L0,6.94169127 L0,6.94169127 Z" id="Path" fill="#020203" fill-rule="nonzero"></path>
        <path d="M86.3942693,0.286572236 C83.7878394,0.286572236 81.0811621,0.286572236 78.4747322,0.382096315 C77.2717645,0.382096315 75.9685496,0.477620394 74.7655819,0.477620394 C73.4623669,0.477620394 72.0589047,0.573144472 70.7556897,0.573144472 C69.552722,0.573144472 68.2495071,0.573144472 67.0465394,0.668668551 C65.8435717,0.668668551 64.5403568,0.76419263 63.3373891,0.76419263 C62.0341741,0.76419263 60.7309592,0.76419263 59.4277442,0.668668551 C58.1245292,0.668668551 56.9215616,0.573144472 55.6183466,0.573144472 C54.4153789,0.573144472 53.112164,0.573144472 51.9091963,0.573144472 C50.7062286,0.573144472 49.4030137,0.668668551 48.200046,0.668668551 C46.9970783,0.76419263 45.6938634,0.76419263 44.4908957,0.859716708 C43.3881754,0.859716708 42.1852077,0.859716708 41.0824873,0.859716708 C39.8795197,0.859716708 38.676552,0.859716708 37.4735843,0.955240787 C36.2706167,0.955240787 34.9674017,0.955240787 33.7644341,0.859716708 C31.2582514,0.859716708 28.7520688,0.955240787 26.2458862,0.955240787 C25.0429185,0.955240787 23.7397035,1.05076487 22.5367359,0.955240787 C21.2335209,0.955240787 20.0305532,0.859716708 18.7273383,0.859716708 C17.5243706,0.859716708 16.2211556,1.05076487 15.018188,1.14628894 C14.4167041,1.14628894 13.8152203,1.24181302 13.2137365,1.24181302 C12.6122526,1.24181302 12.0107688,1.24181302 11.5095323,1.3373371 C10.2063173,1.43286118 9.00334966,1.52838526 7.800382,1.62390934 C7.19889816,1.71943342 6.49716703,1.71943342 5.8956832,1.8149575 C5.59494128,1.8149575 5.29419936,1.91048157 4.99345745,1.91048157 C4.69271553,1.91048157 4.29172631,2.00600565 3.9909844,2.10152973 C3.28925326,2.38810197 2.78801673,2.86572236 2.1865329,3.24781868 C1.48480176,3.72543907 0.783070627,4.29858354 0.181586796,4.87172801 C-0.11915512,5.15830025 -0.0189078146,5.63592064 0.281834101,5.8269688 C0.582576017,6.11354104 0.983565238,6.01801696 1.28430715,5.73144472 C1.48480176,5.54039657 1.78554368,5.25382433 1.98603829,5.06277617 C2.38702751,4.68067986 2.88826404,4.39410762 3.38950056,4.01201131 C3.79048979,3.72543907 4.19147901,3.43886683 4.59246823,3.1522946 C4.69271553,3.1522946 4.79296284,3.05677052 4.79296284,3.05677052 C4.99345745,3.05677052 5.19395206,2.96124644 5.49469397,2.96124644 C5.79543589,2.96124644 6.09617781,2.86572236 6.49716703,2.86572236 C7.09865086,2.86572236 7.800382,2.77019828 8.40186583,2.6746742 C9.70508079,2.57915013 10.9080485,2.48362605 12.2112634,2.38810197 C13.4142311,2.38810197 14.6171988,2.38810197 15.7199191,2.29257789 C16.9228868,2.19705381 18.2261017,2.10152973 19.4290694,2.10152973 C20.7322844,2.10152973 21.935252,2.19705381 23.238467,2.19705381 C24.4414347,2.19705381 25.7446496,2.19705381 26.9476173,2.19705381 C29.4537999,2.19705381 31.9599826,2.00600565 34.4661652,2.10152973 C35.6691329,2.10152973 36.9723478,2.19705381 38.1753155,2.10152973 C39.3782831,2.10152973 40.5812508,2.10152973 41.6839712,2.10152973 C42.8869388,2.10152973 43.9896592,2.10152973 45.1926269,2.10152973 C46.3955945,2.10152973 47.5985622,2.00600565 48.8015298,1.91048157 C51.3077125,1.8149575 53.8138951,1.8149575 56.3200777,1.8149575 C57.6232927,1.8149575 58.9265077,1.91048157 60.1294753,2.00600565 C61.4326903,2.10152973 62.7359053,2.10152973 63.9388729,2.10152973 C65.2420879,2.10152973 66.4450556,2.10152973 67.7482705,2.00600565 C69.0514855,2.00600565 70.2544532,2.00600565 71.5576681,2.00600565 C72.8608831,2.00600565 74.1640981,1.91048157 75.3670657,1.91048157 C76.6702807,1.91048157 78.073743,1.8149575 79.3769579,1.8149575 C81.8831406,1.71943342 84.4895705,1.8149575 86.9957531,1.8149575 C89.6021831,1.8149575 92.1083657,1.8149575 94.7147956,1.8149575 C98.5241932,1.8149575 102.333591,1.8149575 106.142988,2.00600565 C107.045214,2.10152973 107.847193,2.10152973 108.749418,2.19705381 C108.649171,2.19705381 108.548924,2.19705381 108.448676,2.19705381 C108.649171,2.19705381 108.849666,2.19705381 109.05016,2.19705381 C108.949913,2.19705381 108.849666,2.19705381 108.749418,2.19705381 C109.350902,2.19705381 109.952386,2.29257789 110.55387,2.29257789 C111.155354,2.29257789 111.756838,2.29257789 112.258074,2.38810197 C113.360794,2.38810197 114.463515,2.48362605 115.566235,2.48362605 C116.067472,2.48362605 116.668955,2.48362605 117.170192,2.48362605 C117.771676,2.48362605 118.272912,2.48362605 118.874396,2.48362605 C119.375633,2.48362605 119.977117,2.48362605 120.478353,2.48362605 C121.079837,2.48362605 121.681321,2.48362605 122.182557,2.48362605 C122.683794,2.48362605 123.084783,2.00600565 122.984536,1.52838526 C122.984536,1.3373371 122.884288,1.05076487 122.683794,0.955240787 C122.483299,0.76419263 122.282805,0.76419263 121.982063,0.76419263 C121.881815,0.76419263 121.781568,0.76419263 121.581073,0.76419263 C120.5786,0.668668551 119.576127,0.668668551 118.573654,0.668668551 C118.072418,0.668668551 117.470934,0.668668551 116.969697,0.668668551 C116.368214,0.668668551 115.866977,0.668668551 115.265493,0.573144472 C114.162773,0.573144472 113.1603,0.477620394 112.057579,0.477620394 C110.954859,0.382096315 109.952386,0.382096315 108.849666,0.382096315 C107.546451,0.286572236 106.243236,0.191048157 104.940021,0.0955240787 C103.737053,0 102.534085,0 101.331118,0 C100.529139,0 99.6269136,0 98.8249352,0 C98.4239459,0 98.0229567,0 97.6219675,0 C96.3187525,0 95.1157849,0 93.8125699,0 C92.1083657,0 90.4041615,0 88.6999573,0 C88.0984735,0.286572236 87.2964951,0.286572236 86.3942693,0.286572236 L86.3942693,0.286572236 L86.3942693,0.286572236 Z" id="Path" fill="#020203" fill-rule="nonzero"></path>
    </g>
</svg>