<?xml version="1.0" encoding="utf-8"?>
<!-- Generator: Adobe Illustrator 24.1.0, SVG Export Plug-In . SVG Version: 6.00 Build 0)  -->
<svg version="1.1" id="Layer_1" xmlns="http://www.w3.org/2000/svg" xmlns:xlink="http://www.w3.org/1999/xlink" x="0px" y="0px"
	 viewBox="0 0 1000 1000" style="enable-background:new 0 0 1000 1000;" xml:space="preserve">
<style type="text/css">
	.st0{fill:#020203;}
</style>
<g>
	<path class="st0" d="M50.8,235.4C50.8,235.5,50.7,235.5,50.8,235.4c-0.2,0.3-0.2,0.6-0.2,0.9c0,0.6,0.2,1.2,0.4,1.8
		c0.2,0.6,0.4,1.1,0.6,1.5c0.3,0.6,0.6,1.2,1,1.8c0.5,0.8,1,1.7,1.4,2.5l0.4,0.8c0.6,1,1.2,2.1,1.9,3.1c0.6,1,1.2,2,1.8,3l0.1,0.2
		c0.5,0.8,1,1.5,1.5,2.3l0.6,0.9l0.1,0.2c0.6,1,1.3,2,1.9,3c0.6,1,1.2,2,1.9,3c0.6,0.8,1.1,1.7,1.6,2.6c0.7,1.2,1.5,2.4,2.3,3.6
		c0.2,0.3,0.4,0.6,0.6,0.9c0.1,0.2,0.2,0.4,0.4,0.6c0.3,0.5,0.6,1,0.9,1.5c0.2,0.4,0.4,0.7,0.6,1.1c0.3,0.6,0.7,1.2,1.1,1.8
		c0.4,0.7,0.9,1.3,1.4,2l0.7,1c0.3,0.4,0.5,0.8,0.8,1.2c0.4,0.6,0.8,1.1,1.2,1.7c0.2,0.4,0.7,0.6,1.1,0.6c0,0.1-0.1,0.3-0.2,0.4
		c-0.2,0.4-0.5,0.9-0.7,1.4c-0.4,0.9-0.9,1.9-1.4,3c-0.3,0.5-0.5,1.1-0.8,1.6c-0.2,0.5-0.4,0.9-0.7,1.4c-0.2,0.4-0.4,0.8-0.6,1.2
		l-0.2,0.3l-0.2,0.4c-0.2,0.4-0.4,0.8-0.7,1.2l-0.4,0.7c-0.5,0.8-1,1.5-1.4,2.3l-0.5,0.8c-0.4,0.7-0.8,1.4-1.2,2.1
		c-0.4,0.8-0.9,1.7-1.4,2.5l-0.3,0.6c-0.3,0.5-0.6,1-0.9,1.5c-0.1,0.2-0.2,0.4-0.4,0.6c-0.2,0.3-0.4,0.7-0.6,1
		c-0.1,0.2-0.2,0.4-0.4,0.6c-0.2,0.3-0.3,0.6-0.5,0.9c-0.2,0.3-0.3,0.5-0.5,0.8c-0.1,0.2-0.3,0.4-0.4,0.6c-0.3,0.5-0.6,1-0.9,1.5
		c-0.3,0.5-0.5,1-0.8,1.6c-0.5,1-1.1,2-1.7,3c-0.6,0.9-1.1,1.9-1.6,2.8c-0.6,1.1-1,2-1.3,2.8c-0.5,1.2-0.9,2.4-1.2,3.6
		c-0.1,0.4-0.2,0.8-0.2,1.2c0.9,0.5,1.8,1,2.7,1.5c1,0.6,2.1,1.2,3.1,1.7c0.1-0.1,0.2-0.2,0.3-0.2c0.2-0.2,0.4-0.3,0.5-0.5l0.1-0.1
		c0.4-0.4,0.7-0.8,1-1.1c0.4-0.5,0.8-1.1,1.1-1.6c0.3-0.5,0.6-1.1,0.9-1.6c0.7-1.4,1.3-2.4,1.8-3.3c0.7-1.1,1.3-2.1,1.8-3
		c0.3-0.5,0.6-1.1,0.9-1.6c0.2-0.4,0.5-0.8,0.7-1.2l0.5-0.8c0.4-0.7,0.8-1.4,1.2-2.1c0.3-0.6,0.7-1.3,1-1.9c0.2-0.4,0.4-0.8,0.6-1.2
		c0.2-0.4,0.4-0.8,0.6-1.2c0.3-0.5,0.6-1.1,0.9-1.6c0.4-0.7,0.7-1.5,1-2.2l0.4-0.9c0.4-0.8,0.8-1.7,1.2-2.5l0.3-0.7
		c0.3-0.6,0.5-1.2,0.8-1.7c0.3-0.6,0.5-1.1,0.8-1.7c0.5-0.9,1-1.9,1.5-2.8l0.2-0.4c0.6-1.1,1.2-2.2,1.8-3.1c0.6-1,1.1-2,1.6-3
		l0.1-0.2c0.2-0.4,0.4-0.7,0.6-1.1c0.4-0.7,0.7-1.4,1.1-2.1c0.5-1,1-2,1.5-3.1c0.4-0.9,0.9-1.7,1.4-2.6l0.4-0.6
		c0.3-0.5,0.5-1,0.8-1.5c0.3-0.5,0.5-1,0.8-1.5c0.6-1.1,1.2-2.2,1.8-3.3c0.5-1,1.1-2,1.6-3c0.2-0.4,0.5-0.8,0.7-1.2
		c0.4-0.7,0.7-1.3,1.1-2c0.7-1.1,1.3-2.1,1.8-3.2c0.2-0.4,0.4-0.8,0.5-1.3l0.2-0.5l0.2-0.6c0.2-0.4,0.3-0.8,0.5-1.2
		c0.4-1.1,0.9-2.2,1.5-3.5c0.3-0.6,0.6-1.2,0.8-1.8l0.7-1.4c0.3-0.6,0.5-1.1,0.8-1.7c0.2-0.3,0.3-0.6,0.5-0.9
		c0.1-0.2,0.2-0.4,0.3-0.6c0.7-1.4,1.2-2.5,1.5-3.6c0.2-0.6,0.3-1.2,0.4-1.8c0-0.2,0.1-0.5,0.1-0.8c-0.3-0.1-0.5-0.3-0.8-0.5
		c-1.2-0.7-2.5-1.3-3.7-2c-0.5,0.4-1,0.8-1.5,1.2c-0.9,0.8-1.6,1.9-2.2,2.9c-0.2,0.3-0.3,0.5-0.5,0.7l-0.3,0.4
		c-0.4,0.6-0.8,1.2-1.2,1.8c-0.4,0.7-0.9,1.5-1.3,2.1l0.1-0.1l-0.3,0.4c-0.4,0.6-0.8,1.2-1.2,1.8c-0.1,0.2-0.3,0.5-0.4,0.7
		c-0.2,0.3-0.3,0.5-0.5,0.8c-0.3,0.5-0.6,0.9-0.9,1.4c-0.3,0.5-0.6,1.1-0.9,1.6c-0.5,1-1,2-1.4,2.9l-0.1,0.2
		c-0.2,0.4-0.4,0.9-0.6,1.3c-0.3,0.6-0.5,1.3-0.8,1.9c-0.1,0.3-0.2,0.5-0.4,0.8l-0.3,0.6l-0.3,0.6c-0.2,0.3-0.3,0.7-0.5,1
		c-0.3,0.5-0.5,1.1-0.8,1.6l-0.4,0.7l-0.1,0.1c-0.4,0.7-0.8,1.5-1.2,2.2c-0.4,0.7-0.8,1.5-1.2,2.4c-0.3,0.7-0.7,1.5-1.1,2.2
		l-0.3,0.5c-0.2,0.2-0.3,0.5-0.5,0.7l-0.1-0.1c-0.1-0.2-0.3-0.4-0.4-0.6c-0.5-0.8-1-1.6-1.6-2.4l-0.4-0.7c-0.4-0.6-0.8-1.2-1.2-1.8
		c-0.3-0.4-0.6-0.8-0.8-1.3c-0.1-0.2-0.3-0.5-0.4-0.7l-0.3-0.5c-0.5-0.8-1-1.6-1.6-2.5c-0.4-0.6-0.8-1.3-1.2-1.9l-0.5-0.7
		c-0.5-0.8-1-1.7-1.6-2.5l-0.4-0.6c-0.4-0.7-0.8-1.3-1.2-2c-0.5-0.9-1-1.8-1.6-2.7c-0.6-0.9-1.1-1.8-1.7-2.7
		c-0.5-0.9-1.1-1.7-1.6-2.6c-0.5-0.8-1.2-1.7-1.7-2.4l-0.1-0.1c-0.3-0.5-0.6-0.9-1-1.4c-0.2-0.4-0.5-0.7-0.7-1.1
		c-0.2-0.3-0.4-0.5-0.6-0.8l-0.3-0.4l-0.3-0.4c-0.2-0.3-0.4-0.6-0.6-0.8c-0.6-0.8-1.2-1.6-1.9-2.3c-0.5-0.6-1.1-1-1.7-1.4
		C53.6,234,52.2,234.7,50.8,235.4L50.8,235.4L50.8,235.4z"/>
	<path class="st0" d="M74.9,274c-0.4,0.3-0.4,0.7-0.2,1.1c0.2,0.3,0.4,0.7,0.6,1c0,0.2,0,0.3,0,0.5c0.3,0.7,0.6,1.4,0.9,2.1
		c-0.2,0.4-0.2,0.9,0,1.3c0.2,0.4,0.5,0.7,0.8,1.1c0.2,0.3,0.5,0.6,0.7,1c0.2,0.4,0.7,0.5,1.1,0.5c0.2,0,0.3-0.1,0.5-0.1
		c0.2,0,0.3-0.1,0.5-0.3c0.2-0.3,0.2-0.6,0.2-0.9c0-0.1,0-0.1,0-0.2c0,0,0-0.1,0-0.1c-0.1-0.2-0.2-0.4-0.3-0.6c0,0-0.1-0.1-0.1-0.1
		c-0.1-0.2-0.2-0.4-0.3-0.5c-0.3-0.5-0.5-0.9-0.8-1.4c-0.3-0.5-0.5-0.9-0.8-1.4c-0.1-0.2-0.2-0.4-0.3-0.6c-0.1-0.2-0.2-0.5-0.4-0.7
		c-0.3-0.5-0.5-1-0.8-1.5c-0.1-0.2-0.4-0.3-0.6-0.3C75.2,273.8,75,273.9,74.9,274L74.9,274L74.9,274z"/>
	<path class="st0" d="M147.6,233.9C147.6,233.9,147.6,233.9,147.6,233.9h-0.1c-3.1,0-6.3,0.4-9.7,1.3c-3,0.8-5.9,1.9-8.9,3.5
		c-3.9,2.1-7.5,4.9-10.6,8.4c-0.1,0.1-0.1,0.2-0.2,0.3c-1.1,1.2-2.1,2.5-3,3.8c-1.8,2.7-3.3,5.5-4.4,8.5c-0.6,1.5-1,3-1.4,4.6
		c-0.4,1.5-0.6,3-0.8,4.6c-0.8,6.4,0.1,12.9,2.4,18.9c2.3,5.8,6,11.1,10.8,15.3c4.8,4.2,10.6,7.2,16.9,8.6c2.9,0.7,5.9,1,9.1,1
		c3,0,6.1-0.4,9.3-1.1c6.1-1.5,11.9-4.5,16.8-8.9c4.7-4.2,8.4-9.5,10.6-15.4c2.2-6,3-12.4,2.3-18.7c-0.8-6.3-3.1-12.4-6.8-17.7
		c-3.5-5.1-8.3-9.3-13.8-12.3c-2.7-1.5-5.7-2.6-8.9-3.4C154.1,234.3,150.9,233.9,147.6,233.9L147.6,233.9L147.6,233.9z M133.4,244.8
		c2.4-1.2,4.9-2,7.4-2.6c2.2-0.5,4.5-0.7,6.7-0.7c0.5,0,1.1,0,1.6,0c2.8,0.2,5.6,0.7,8.2,1.6c2.7,0.9,5.3,2.2,7.6,3.8
		c1.8,1.2,3.4,2.6,4.9,4.2c0.1,0.1,0.4,0.3,0.6,0.3c0.2,0.2,0.4,0.4,0.6,0.6l-0.1-0.1c1.7,2,3.3,4.3,4.5,6.6l0,0.1l0,0
		c1.2,2.5,2.2,5.1,2.7,7.9c0.5,2.6,0.7,5.4,0.6,8.1c-0.2,2.9-0.7,5.8-1.7,8.6l0-0.1c-0.9,2.6-2.1,5-3.6,7.3
		c-1.5,2.2-3.3,4.3-5.3,6.1c-1.5,1.3-3,2.4-4.7,3.4c-0.1,0-0.3,0.1-0.4,0.2c0,0-0.1,0-0.1,0c-0.1,0-0.2,0.1-0.2,0.1
		c-0.4,0.2-0.9,0.5-1.3,0.7c-0.2,0.1-0.4,0.2-0.6,0.3c-2.2,1.1-4.6,1.9-7,2.4c-2.2,0.5-4.5,0.7-6.7,0.7c-0.5,0-1.1,0-1.6,0
		c-2.8-0.2-5.6-0.7-8.3-1.6c-2.6-0.9-5.1-2.1-7.3-3.6c-2.3-1.5-4.4-3.4-6.2-5.4c-1.7-2-3.2-4.2-4.5-6.6c-1.2-2.4-2.1-5-2.7-7.6
		l0-0.2c-0.6-2.8-0.8-5.5-0.6-8.3c0.2-2.8,0.7-5.6,1.6-8.3c0.9-2.6,2.1-5,3.6-7.3l-0.1,0.1l0.1-0.1c1.6-2.3,3.4-4.3,5.4-6.1
		C128.7,247.5,131,246,133.4,244.8L133.4,244.8L133.4,244.8L133.4,244.8z"/>
	<path class="st0" d="M203.7,237.4l-0.1,0.2c0,0.1-0.1,0.1-0.1,0.2l0,0c-0.2,0.4-0.3,0.8-0.4,1.2c-0.1,0.4-0.2,0.9-0.3,1.3
		c-0.2,0.8-0.4,1.5-0.7,2.3c-0.1,0.5-0.2,1-0.3,1.5c-0.1,0.3-0.1,0.6-0.2,0.9l-0.1,0.6c-0.1,0.4-0.2,0.8-0.2,1.1l-0.1,0.3
		c-0.1,0.2-0.1,0.5-0.2,0.7c0,0.2-0.1,0.5-0.2,0.7c0,0.2-0.1,0.4-0.1,0.6c-0.1,0.3-0.1,0.6-0.2,0.9c-0.1,0.6-0.2,1.2-0.3,1.8
		c-0.1,1-0.2,2.1-0.3,3.1l0,0.3c-0.1,1-0.1,2-0.2,2.9c0,0.8,0,1.6,0,2.4l0,0.8l0,0.4c0,0.9,0,1.7,0.1,2.6c0,1,0.1,1.9,0.3,3
		c0.2,1.5,0.4,3.1,0.6,4.6l0.2,1.6l0.1,0.5l0.1,0.4c0.1,1.1,0.4,2.2,0.6,3.2c0.2,1.1,0.4,2.2,0.6,3.3c0.1,0.7,0.3,1.3,0.5,2
		c0.1,0.4,0.2,0.7,0.3,1.1c0.3,1.1,0.5,2.2,0.8,3.1c0.2,0.8,0.5,1.6,0.7,2.4l0.2,0.6c0.4,1.2,0.9,2.3,1.3,3.2
		c0.9,1.9,1.9,3.8,3.1,5.8c0.6,0.9,1.2,1.8,1.7,2.6c0.7,1.1,1.5,1.9,2.2,2.6c0.7,0.7,1.5,1.4,2.3,2.1c0.8,0.8,1.7,1.5,2.6,2.1
		c0.4,0.3,0.8,0.6,1.2,0.8c0.2,0.1,0.3,0.2,0.5,0.3c0.2,0.2,0.5,0.3,0.7,0.5c0.9,0.5,1.8,0.9,2.7,1.3c0.9,0.4,1.9,0.6,3,0.8
		c1,0.2,1.9,0.3,2.7,0.3c0.1,0,0.2,0,0.4,0c0.9,0,2-0.1,3.1-0.2l0.2,0c1-0.1,2-0.2,3-0.4c1-0.2,1.9-0.5,3-0.9c1-0.4,1.9-0.9,2.7-1.4
		c0.5-0.3,0.9-0.7,1.3-1c0.4-0.3,0.9-0.7,1.3-1.1c0.6-0.5,1.1-1.1,1.6-1.6c0.2-0.2,0.4-0.4,0.6-0.7l0.1-0.1c0.3-0.3,0.7-0.7,1-1.1
		c0.4-0.4,0.7-0.8,1.1-1.4l0.4-0.5c0.2-0.2,0.3-0.5,0.5-0.7c0.3-0.4,0.5-0.7,0.8-1.1c0.5-0.7,0.8-1.4,1.2-2l0.2-0.4
		c0.5-0.9,0.9-1.9,1.3-2.8l-0.1,0.1c0.8-1.9,1.5-3.9,2.1-5.9c0.3-1,0.6-2,0.8-3l0.3-1.1c0.2-0.6,0.3-1.2,0.5-1.7c0.3-1,0.5-2,0.7-3
		c0.1-0.5,0.2-0.9,0.2-1.4c0.1-0.6,0.2-1.1,0.3-1.7c0.2-1,0.4-2,0.6-3.1c0.2-1.1,0.3-2.3,0.4-3.4c0.1-0.6,0.1-1.1,0.2-1.7
		c0-0.5,0.1-1,0.1-1.5c0.1-0.9,0.2-1.9,0.2-3.1c0-1.1,0-2.1,0-3.2l0-0.2c0-0.9-0.1-1.7-0.1-2.6l0-0.8c0-0.4,0-0.9,0-1.3
		c0-0.3,0-0.6,0-0.9c0-0.7-0.1-1.4-0.1-2.1c-0.1-1.4-0.3-2.8-0.5-4.3l0-0.1h0l0-0.3l0-0.3l0-0.2l-0.1-0.6c-0.1-0.7-0.2-1.4-0.3-2
		l0-0.3c-0.1-0.4-0.1-0.8-0.2-1.2c-0.1-0.3-0.1-0.6-0.2-0.9l-0.1-0.4l-0.4-1.4l-0.4-1.4c-0.1-0.6-0.3-1.1-0.5-1.6
		c-0.7,0.1-1.4,0.3-2.2,0.4c-1.6,0.3-3.3,0.4-4.9,0.7c-0.4,0.1-0.8,0.1-1.3,0.1c0,0.1,0,0.3,0.1,0.4l0.1,1c0.1,0.8,0.2,1.6,0.3,2.4
		c0,0.1,0,0.2,0,0.2l0-0.1l0,0.5l0.1,0.5l0.1,0.6l0,0.3c0.1,0.9,0.2,1.7,0.3,2.6c0,0.4,0.1,0.8,0.2,1.3l0.1,0.8
		c0,0.2,0.1,0.4,0.1,0.7v0c0.1,0.5,0.1,1,0.2,1.5c0.1,0.5,0.1,0.9,0.2,1.4c0.1,0.5,0.1,1,0.2,1.5c0,0.5,0.1,0.9,0.1,1.4
		c0.1,1,0.2,2,0.3,3c0,0.6,0.1,1.2,0.1,1.9c0,0.3,0.1,0.7,0.1,1c0.1,0.9,0.1,1.9,0.1,3c0,1.6,0,3.3-0.1,4.9l0,0.2
		c0,0.7,0,1.5-0.1,2.2c0,0.7-0.1,1.5-0.2,2.3v0.1h0v0l0,0l0,0l0,0c-0.3,2.1-0.7,4-1.1,5.7l-0.1,0.3c-0.2,0.8-0.4,1.7-0.6,2.5
		c-0.2,0.9-0.5,1.8-0.8,2.7c-0.2,0.5-0.3,0.9-0.5,1.4l0,0.1c-0.7,1.5-1.4,2.9-2.1,4.2c-0.9,1.5-1.9,2.9-2.7,4
		c-1.1,1.3-2.4,2.4-3.5,3.4c-0.5,0.4-1.1,0.8-1.7,1.1l-0.5,0.3l-0.5,0.3c-0.5,0.3-1,0.7-1.6,0.9c-0.6,0.2-1.2,0.3-1.9,0.4
		c-0.9,0.1-1.8,0.1-2.7,0.1c-1.1,0-2.2-0.1-3.4-0.2c-0.5-0.1-1-0.1-1.4-0.2c-0.5-0.1-1-0.3-1.4-0.5c-0.9-0.4-1.8-0.8-2.7-1.4
		c-0.8-0.6-1.5-1.4-2.2-2.1l-0.1-0.1c-0.8-0.8-1.4-1.5-2-2.2c-0.5-0.7-1-1.5-1.5-2.2l-0.1-0.2c-0.2-0.3-0.4-0.7-0.6-1
		c-0.2-0.3-0.4-0.7-0.5-1.1l-0.1-0.1c-0.3-0.6-0.5-1.3-0.7-1.9l-0.3-0.8c-0.3-0.8-0.7-1.8-1-2.9c-0.6-1.9-1-3.8-1.4-5.6
		c-0.2-1-0.4-2.1-0.5-2.9l0-0.2l-0.2-1.7l0-0.1l-0.1-0.9c-0.1-0.9-0.2-1.9-0.3-2.8c-0.1-1.2-0.1-2.2-0.1-3c0-1,0-2.1,0.1-3.1
		s0-2.1,0-3.1c0-1.2,0-2.2,0.1-3.1c0-0.6,0-1.2,0-1.8c0-0.4,0-0.8,0-1.2c0-1,0.1-2.1,0.2-3.3c0.1-0.9,0.1-1.8,0.2-3
		c0-1,0.1-1.9,0.2-2.9c0.2-1.5,0.5-2.9,0.8-4.3c0.2-0.8,0.3-1.5,0.5-2.2c0.2-0.7,0.3-1.4,0.4-2c-0.1,0-0.1,0-0.2,0
		c-1.2-0.2-2.5-0.4-3.7-0.5c-1.1-0.1-2.2-0.3-3.3-0.5C203.7,237.3,203.7,237.4,203.7,237.4L203.7,237.4L203.7,237.4z"/>
	<path class="st0" d="M330.2,235.4c-0.1,0-0.2,0-0.4,0c-1.1,0-1.9,0.1-2.7,0.1c-0.7,0.1-1.4,0.2-2,0.3l-0.8,0.1
		c-0.3,0-0.6,0.1-1,0.1c-0.7,0.1-1.3,0.2-2,0.3c-0.1,0-0.2,0-0.2,0l0,0l-0.1,0c-0.4,0.1-0.9,0.2-1.4,0.3l-0.1,0
		c-0.4,0.1-0.8,0.2-1.2,0.3l-0.3,0.1c-1,0.3-2,0.6-3.2,1c-1.1,0.4-2.1,0.8-3.1,1.2c-0.5,0.3-1,0.5-1.6,0.8l-0.6,0.3
		c-0.3,0.2-0.6,0.3-0.9,0.5c-1,0.6-1.9,1.2-2.6,1.7c-0.9,0.6-1.7,1.3-2.7,2.2c-0.3,0.3-0.6,0.5-0.9,0.8c-0.5,0.5-1.1,1-1.6,1.5
		c-0.6,0.6-1.2,1.4-1.7,2.1l-0.3,0.5c-0.6,0.8-1.4,1.8-2.1,2.9l-0.4,0.5c-0.5,0.7-1,1.5-1.4,2.2c-0.5,0.9-1,1.9-1.5,2.8l-0.1,0.1
		c-0.5,1-1,2-1.4,2.9c-0.6,1.4-1,3-1.3,4.3c-0.2,0.8-0.3,1.5-0.4,2.1c0,0.2,0,0.3,0,0.5l0,0.2l0,0c-0.1,0.9-0.1,1.7-0.2,2.6l0,0.6
		c0,0.6,0,1.1,0,1.6c0,0.4,0.1,0.8,0.1,1.2l0,0.4c0.1,0.5,0.1,1,0.2,1.5c0.1,0.5,0.1,1.1,0.2,1.6c0.2,1.3,0.5,2.5,0.7,3.4
		c0.6,2.2,1.5,4.3,2.4,6.1c0.3,0.6,0.5,1.1,0.8,1.6c0.2,0.4,0.5,0.8,0.7,1.2l0.2,0.4c0.6,1,1.1,1.9,1.7,2.8c0.6,1,1.4,2,2.2,3
		c0.3,0.3,0.5,0.6,0.8,0.9l0.3,0.3l0.6,0.6l0.6,0.6c0.7,0.8,1.5,1.6,2.3,2.4c0.8,0.7,1.6,1.4,2.4,2l0.1,0.1c0.9,0.8,1.9,1.4,2.9,2.1
		l0.1,0.1c1,0.6,1.9,1.2,2.9,1.8c1,0.6,2.1,1.1,3.1,1.6c0.9,0.4,2,0.8,3.2,1.3c1,0.3,2,0.6,3.2,0.9l0.3,0.1c1,0.2,1.9,0.4,2.9,0.6
		c1.2,0.2,2.4,0.3,3.3,0.4c1.1,0.1,2.2,0.2,3.3,0.4c1.1,0.1,2.1,0.2,3.2,0.3c0.8,0.1,1.7,0.1,2.5,0.1l0.8,0c0.2,0,0.4,0,0.6,0
		c0.3,0,0.6,0,0.9,0c0.5,0,1-0.1,1.4-0.2c0.6-0.1,1.1-0.2,1.6-0.4l0.3-0.1c0.2-0.1,0.4-0.1,0.7-0.2c0.3-0.1,0.5-0.1,0.8-0.2l0.1,0
		c0.9-0.2,1.8-0.5,2.7-0.8c1-0.4,2.1-0.8,3.2-1.3c0.9-0.4,1.7-0.9,2.4-1.4l0.5-0.4c0.6-0.5,1.2-0.9,1.8-1.4l0.3-0.3
		c0.3-0.2,0.5-0.4,0.7-0.6c0.3-0.3,0.5-0.6,0.6-1c0.1-0.3,0.1-0.6,0.1-0.9c0.1-0.1,0.2-0.2,0.2-0.4c0.3-1,0.5-2,0.8-3l0-0.2
		c0.1-0.5,0.2-0.9,0.3-1.4c0.1-0.3,0.2-0.7,0.2-1c0.2-0.7,0.4-1.4,0.5-2.1c0.2-0.7,0.4-1.4,0.5-2.1l0.3-1c0,0,0-0.1,0-0.1l0-0.2
		l0.1-0.4c0.1-0.6,0.3-1.2,0.4-1.9l0.2-0.8c0.1-0.5,0.2-0.9,0.4-1.4c0.2-0.8,0.4-1.6,0.6-2.4c0.1-0.7,0.3-1.3,0.4-2
		c0.1-0.6,0.3-1.2,0.4-1.8c0.2-1,0.4-2,0.6-3l0.1-0.7c0.1-0.5,0.2-0.9,0.3-1.4c0.2-0.8,0.3-1.6,0.5-2.3c0.1-0.5,0.2-1,0.2-1.5
		c0-0.3,0-0.5-0.2-0.8c-0.2-0.3-0.5-0.4-0.8-0.5c-0.2-0.2-0.4-0.4-0.6-0.5c-0.6-0.2-1.3-0.2-1.9-0.3c-0.5-0.1-1.1-0.1-1.6-0.1
		c-0.6,0-1.1-0.1-1.7-0.1c-0.5,0-1.1,0-1.6-0.1c-0.5,0-1.1-0.1-1.6-0.1c-0.7,0-1.3-0.1-2-0.1l-0.2,0c-1.1-0.1-2.3-0.2-3.4-0.2
		c-0.4,0-0.8,0-1.2,0l-0.6,0c-0.3,0-0.7,0-1,0c-0.3,0-0.5,0-0.8,0c-0.3,0-0.5,0-0.8,0c-0.3,0-0.7,0-1,0c-0.5,0-1,0-1.5,0l-0.4,0
		l-0.7,0c-0.3,0-0.6,0-0.9,0l-0.2,0c-0.6,0-1.2,0-1.7-0.1c-0.7,0-1.4,0-2,0c-0.5,0-1,0-1.6,0l-0.1,0c-0.6,0-1.1,0-1.7-0.1
		c-0.6,0-1.3-0.1-1.9-0.1c-0.6,0-1,0.3-1.1,0.8c-0.3,0.2-0.4,0.5-0.4,0.8c0,0.3,0,0.6,0,0.9c0,0.4,0,0.7,0,1.1l0,0.2
		c0,0.6,0,1.2,0.1,1.8c0.1,0.6,0.4,1,0.8,1.3c0.2,0.2,0.5,0.2,0.8,0.3c0.2,0.1,0.4,0.1,0.6,0.1l0.2,0c0.4,0.1,0.9,0.1,1.3,0.1l0.5,0
		c1,0,2,0.1,3,0.1c0.3,0,0.6,0,0.9,0c0.5,0,1.1,0,1.6,0c0.8,0,1.6,0,2.4,0c2,0.1,4,0.2,5.9,0.3l1.8,0.1l0.2,0
		c1.2,0.1,2.4,0.1,3.6,0.2l1.3,0.1c0.7,0,1.4,0.1,2.1,0.1c0,0.2-0.1,0.4-0.1,0.5l0,0c-0.2,0.8-0.3,1.5-0.5,2.3
		c-0.1,0.7-0.3,1.4-0.4,2.1c-0.2,0.7-0.4,1.4-0.6,2.1c-0.3,0.9-0.5,1.9-0.7,2.8l0,0.1l0,0c-0.2,0.7-0.3,1.3-0.5,1.9l0,0.1
		c-0.1,0.5-0.3,1-0.4,1.6l-0.1,0.5c-0.3,0.9-0.5,1.8-0.6,2.5c-0.2,0.9-0.5,1.8-0.9,2.8c-0.3,1-0.7,1.9-0.9,2.9
		c-0.4,0.4-0.8,0.7-1.2,1c-0.4,0.2-0.7,0.4-1.1,0.6c-0.4,0.2-0.9,0.4-1.3,0.5l-0.1,0c-0.8,0.3-1.7,0.6-2.6,0.9
		c-1,0.3-2.1,0.4-3.1,0.6c-0.3,0-0.7,0.1-1,0.1l-0.2,0c-0.6,0.1-1.2,0.2-1.8,0.2l-0.7,0.1c-0.5,0-1,0.1-1.5,0.1c-0.3,0-0.7,0-1,0
		c-0.3,0-0.5,0-0.8,0c-0.7,0-1.3,0-2,0c-1.2-0.1-2.4-0.2-3.5-0.5c-1-0.2-1.9-0.6-2.8-0.9c-0.9-0.3-1.8-0.6-2.7-1
		c-1.7-0.7-3.5-1.5-5.3-2.5c-0.6-0.4-1.5-0.8-2.3-1.4c-0.7-0.5-1.4-1-2.2-1.7c-0.5-0.4-1-0.8-1.4-1.3l-0.6-0.6
		c-0.8-0.7-1.5-1.3-2.3-2c-0.5-0.5-1.1-1.1-1.6-1.6c-0.5-0.6-1-1.2-1.5-1.7l-0.2-0.3c-0.5-0.7-1.1-1.4-1.6-2.1
		c-0.6-0.8-1-1.5-1.5-2.1c-1-1.8-1.9-3.8-2.8-6.4c-0.6-2.1-1-4.2-1.1-6.2c0-1,0-2,0.1-3.2l0-0.1c0-0.5,0.1-1,0.2-1.6
		c0.1-0.4,0.1-0.9,0.3-1.4c0.4-1.4,0.9-2.7,1.5-3.9c0.6-1.1,1.2-2.1,1.8-3c0.5-0.8,1.2-1.7,1.9-2.6c0.8-0.8,1.7-1.6,2.6-2.3
		c0.5-0.4,0.9-0.8,1.4-1.2l0.6-0.5c0.4-0.4,0.8-0.8,1.3-1.1c0.6-0.5,1.2-1,1.9-1.4c0.6-0.3,1.2-0.7,1.8-1c0.4-0.2,0.8-0.4,1.2-0.6
		c0.3-0.1,0.6-0.3,0.9-0.4c1.2-0.5,2.6-1.2,4.1-1.6c1.6-0.5,3-0.8,4.4-1.1c0.8-0.2,1.6-0.3,2.4-0.4c0.8-0.1,1.6-0.1,2.4-0.2
		c0.2,0,0.5,0,0.7,0c0.8,0,1.7,0,2.7,0.1c1.2,0.1,2.5,0.2,3.7,0.4c2.3,0.3,4.6,0.7,6.9,1.3c1.5,0.4,3.1,0.8,4.6,1.4
		c0.5,0.2,1,0.5,1.5,0.7l0.7,0.3c0.2,0.1,0.5,0.2,0.7,0.3c0.4,0.2,0.9,0.4,1.3,0.6c0.4,0.2,0.7,0.5,1.1,0.7c0.2,0.1,0.4,0.2,0.7,0.2
		c0.4,0,0.7-0.2,0.9-0.5c0.2-0.1,0.5-0.2,0.6-0.4l0.1-0.2c0.3-0.4,0.6-0.7,0.9-1.1c0.3-0.4,0.6-0.9,0.9-1.3c0.2-0.3,0.2-0.6,0.2-0.8
		c0-0.1,0-0.1-0.1-0.2c0.1-0.3,0-0.6-0.3-0.8l-0.1-0.1c-0.4-0.3-0.8-0.7-1.3-1l-0.5-0.3c-0.3-0.2-0.5-0.3-0.7-0.5
		c-0.9-0.6-1.9-1.1-2.8-1.7c-1-0.5-2-1.1-3-1.6c-0.5-0.3-1-0.5-1.5-0.7c-0.5-0.2-1-0.4-1.4-0.5l-0.3-0.1l-0.1,0l0,0l-0.1,0
		c-1-0.4-2.1-0.7-3.1-1.1c-0.9-0.3-1.9-0.5-3.2-0.7c-0.6-0.1-1.2-0.2-1.9-0.3c-0.5-0.1-0.9-0.1-1.4-0.2c-1-0.2-2-0.3-3-0.4
		C331.7,235.4,330.9,235.4,330.2,235.4L330.2,235.4L330.2,235.4z"/>
	<path class="st0" d="M409.8,237.2c-0.2,0-0.3,0-0.5,0c-3.2,0-6.5,0.6-9.6,1.5c-6.1,1.8-11.6,5.3-16,10.1
		c-4.2,4.6-7.1,10.3-8.5,16.4c-1.3,6.1-1,12.4,0.9,18.3c1.9,5.8,5.2,11.1,9.8,15.3c4.7,4.3,10.5,7.3,16.7,8.6
		c2.4,0.5,4.9,0.8,7.3,0.8c4,0,7.8-0.6,11.5-1.9c6-2.1,11.3-5.7,15.3-10.4c2.1-2.4,3.8-5.1,5.2-7.9c1.4-2.9,2.3-5.9,2.9-9
		c0.6-3.2,0.7-6.5,0.4-9.6c-0.3-3.1-1-6.1-2.1-8.9c-1.1-2.9-2.5-5.6-4.2-8c-1-1.3-2-2.6-3-3.7c-1-1.1-2.1-2.1-3.4-3.2
		c-2.3-1.9-4.9-3.5-7.8-4.8c-1.3-0.6-2.7-1.1-4.2-1.6c-0.4-0.1-0.8-0.2-1.2-0.3c-0.2-0.2-0.4-0.4-0.6-0.4
		C415.8,237.6,412.8,237.2,409.8,237.2L409.8,237.2L409.8,237.2z M392.5,294.3L392.5,294.3c-1.8-1.5-3.4-3.3-4.8-5.1
		c-1.3-1.9-2.5-4-3.3-6.2c-0.8-2.3-1.4-4.6-1.7-7.1c-0.2-2.4-0.1-4.9,0.2-7.3c0.4-2.4,1.2-4.7,2.2-7c1-2.1,2.3-4.2,3.8-6
		c1.5-1.7,3.2-3.3,5-4.7c1.9-1.3,4-2.5,6.1-3.3c2.2-0.8,4.6-1.4,7-1.7c0.9-0.1,1.8-0.1,2.8-0.1h0c1.6,0,3.1,0.1,4.7,0.4
		c2.4,0.4,4.8,1.2,7,2.2c1.9,0.9,3.8,2,5.5,3.3c0.2,0.1,0.4,0.2,0.7,0.2c1.7,1.5,3.2,3.1,4.6,4.9c1.4,1.9,2.5,4.1,3.4,6.3
		c0.9,2.3,1.4,4.6,1.7,7c0.2,2.5,0.1,5.1-0.3,7.6c-0.4,2.4-1.1,4.6-2.1,6.8c-1,2.2-2.3,4.2-3.8,6c-1.5,1.8-3.2,3.4-5.1,4.8
		c-1.9,1.4-4,2.5-6.2,3.4c-2.3,0.9-4.7,1.4-7.2,1.7c-0.8,0.1-1.7,0.1-2.5,0.1c-1.5,0-3.1-0.1-4.6-0.4c-2.4-0.4-4.7-1.1-6.9-2.1
		C396.5,297.1,394.4,295.9,392.5,294.3C392.6,294.4,392.5,294.3,392.5,294.3L392.5,294.3L392.5,294.3L392.5,294.3z"/>
	<path class="st0" d="M460.1,236.4c-0.7,0-1.5,0.1-2.2,0.1l-1.5,0.1c-0.7,0-1.3,0-2,0.1c-0.5,0-1,0-1.5-0.1l-0.4,0
		c-0.3,0-0.6,0.2-0.8,0.5c-0.3,0-0.6,0.2-0.8,0.4c-0.2,0.2-0.3,0.5-0.3,0.8l0,0.5c0,0.5,0.1,0.9,0.1,1.4c0,0.2,0,0.5,0,0.7
		c0,0.4,0,0.8,0,1.2c0,0.4,0.2,0.8,0.6,1c0,0.2,0.1,0.4,0.3,0.5c0.2,0.2,0.4,0.3,0.8,0.3c1.2,0.1,2.5,0.2,3.7,0.2
		c1.2,0.1,2.4,0.1,3.6,0.2c1.4,0,2.8,0.1,4.3,0.2c1.1,0.1,2.1,0.1,3.1,0.1c0.7,0,1.4,0,2.1,0.1c0.6,0,1.2,0,1.9,0.1
		c1.2,0,2.4,0.1,3.5,0.2c0.6,0,1.1,0.1,1.7,0.1l0,2.1c0,1.1-0.1,2.3-0.2,3.5c-0.1,1.2-0.2,2.4-0.3,3.7c0,0.5-0.1,1-0.1,1.5
		c-0.1,0.7-0.1,1.4-0.2,2.1l0,0.7c-0.1,2.1-0.3,4.2-0.4,6.4c-0.1,1.3-0.2,2.6-0.3,3.8c-0.1,1.3-0.1,2.5-0.2,3.6
		c-0.1,2.7-0.1,5-0.1,7.2c0,0.9,0,1.7,0,2.6c0,1.5,0,3.1,0,4.7c0,0.8-0.1,1.6-0.1,2.4c-0.1,1.5-0.1,3.1-0.1,4.7c0,1.4,0,2.7,0,4.1
		c0,0.9,0,1.7,0,2.6c0,0.8,0,1.5,0,2.3l0,0.3c0,0.3,0,0.5,0,0.8l0,0.1c0,0.2,0,0.3,0,0.5c0,0.1,0,0.2,0,0.3c0,0.1,0,0.2,0,0.4
		c0,0.3,0.1,0.5,0.2,0.8c0.4,0,0.8-0.1,1.2-0.1c1.6-0.1,3.1-0.2,4.7-0.2c0.1,0,0.2,0,0.3,0c0.1-0.2,0.2-0.3,0.3-0.5
		c0.2-0.2,0.3-0.4,0.3-0.6c0.1-0.5,0.1-1,0.1-1.4c0-0.3,0-0.7,0-1l0-0.5l0-0.6c0-0.9,0.1-1.8,0.1-2.7c0-2.3,0.1-4.7,0.2-7
		c0.1-1.8,0.1-3.5,0.2-5.3l0.1-1.8l0-1.4c0.1-1.9,0.1-3.8,0.2-5.7c0-0.7,0.1-1.3,0.1-2c0-0.5,0-1.1,0.1-1.6c0.1-1.3,0.1-2.6,0.1-3.8
		c0-0.5,0-1.1,0.1-1.6c0-0.7,0.1-1.3,0.1-2c0-0.5,0-1.1,0-1.6c0-0.7,0-1.4,0-2.1c0-1.4,0-2.7,0-3.7c0-1.2,0-2.4-0.1-3.5l0-1.6
		c0-0.7,0-1.4,0-2c0-0.4,0-0.9,0-1.3c0-0.8,0-1.6,0-2.4l0-0.7c0-0.6,0-1.2-0.1-1.8c0.4,0,0.9,0,1.3,0h0.6l1.2,0h0.7c1,0,2,0,3-0.1
		c1.3-0.1,2.4-0.1,3.6-0.1c0.7,0,1.5,0,2.2,0l1.2,0c0.8,0,1.5,0,2.3-0.1c0.5,0,1,0,1.5-0.1l0.8,0c0.2,0,0.5,0,0.7,0
		c0.4,0,0.8,0,1.2,0l0.1,0c0.3,0,0.7,0,1,0c0.5,0,0.9,0,1.2-0.1c0.3-0.1,0.5-0.2,0.7-0.5c0.6,0,1.1-0.5,1.1-1.2c0-0.5,0-1.1,0-1.6
		l0-0.2c0-0.7,0-1.4,0-2c0-0.5-0.4-1-1-1.1c-0.2-0.3-0.5-0.3-0.9-0.4l-0.1,0l-0.1,0c-0.6-0.1-1.2-0.1-1.7-0.2c-0.4,0-0.7,0-1.1-0.1
		l-0.6,0c-0.8,0-1.5-0.1-2.3-0.1l-0.4,0l-0.8-0.1c-2.5-0.2-4.9-0.3-7.4-0.4c-1.4-0.1-2.6-0.1-3.6-0.1h-0.1c-0.8,0-1.5,0-2.3,0
		c-0.5,0-1.1,0-1.6,0l-0.7,0c-1.3,0-2.6,0-3.8-0.1c-1,0-2,0-3-0.1c-1.3,0-2.5,0-3.8-0.1l-0.6,0c-1,0-2-0.1-3-0.1l-1.1,0
		c-0.7,0-1.5,0-2.2,0C463.5,236.3,461.8,236.3,460.1,236.4L460.1,236.4L460.1,236.4z"/>
	<path class="st0" d="M560.5,238c-1.1,0-2.3,0.1-3.2,0.1l-0.8,0c-2.6,0.1-4.9,0.2-7.2,0.2c-0.4,0-0.7,0-1.1,0c-1.2,0-2.3,0-3.5,0
		h-0.5c-1.1,0-2.3,0-3.4,0.1l-0.3,0l-0.5,0c-1.4,0-2.7,0.1-3.9,0.2l-0.7,0.1c-0.8,0.1-1.8,0.2-2.7,0.2c-0.2,0-0.4,0-0.5,0
		c-0.2,0-0.5,0.1-0.7,0.3c-0.2,0-0.4,0.1-0.5,0.2c-0.2,0.2-0.5,0.5-0.5,0.8c0,0.7-0.1,1.4-0.1,2.1l0,0.5c0,0.4,0,0.9,0,1.3
		c0,0.6,0.5,1,1,1.1c0,0.1,0.1,0.2,0.1,0.2c0.1,0.2,0.4,0.3,0.6,0.3h0.2c1,0,2.1-0.1,2.9-0.1l0.3,0l0.6,0c0.3,0,0.7,0,1-0.1
		c0.6,0,1.1,0,1.7,0l-0.2,0l0.5,0l1,0c0.5,0,1,0,1.5,0l1.5,0l1.5,0c0.8,0,1.6,0,2.4,0c0.3,0,0.7,0,1,0c1,0,2,0,3-0.1l0.3,0l0.3,0
		c0,0.5-0.1,0.9-0.1,1.4l0,0.2c0,0.3,0,0.6,0,1c0,0.3,0,0.5,0,0.8c0,1.1-0.1,2.3-0.1,3.4c0,0.7,0,1.3,0,2c0,0.5,0,1,0,1.5
		c0,0.8,0,1.6,0,2.4l0,1.1c0,0.7,0,1.3,0,2c0,0.5,0,1,0,1.4c0,0.8,0,1.7,0,2.5l0,1.1c0,2.3-0.2,4.7-0.4,7l0,0.1
		c0,0.6-0.1,1.2-0.1,1.8c0,0.4,0,0.8,0,1.2l0,0.5c0,0.7,0,1.3,0,2c0,0.6,0,1.1,0,1.7c0,0.5,0,1-0.1,1.6c0,0.7-0.1,1.3-0.1,2l0,0.3
		c0,0.4,0,0.9,0,1.4l0,0.6c0,0.4,0,0.7,0,1.1c0,1.5,0,2.6-0.1,3.6c0,0.6,0,1.2,0,1.8c0,0.5,0,1.1,0,1.6l0,0.9l0,0.9
		c0,0.4,0,0.9,0,1.3l0,0.4c0,0.2,0,0.5,0,0.7c0,0.3,0,0.6,0,0.9l0,0.2c0,0.5,0,1,0,1.5c0,0.7,0,1.4,0,2.1c0,0.4,0,0.8,0,1.1
		c0,0.3,0,0.6,0,0.9c0,0.7,0,1.3,0,2l0,0.2c0,0.7,0,1.5,0.2,2.2c0.1,0.4,0.4,0.8,0.9,1c0,0,0,0.1,0,0.1c2.2-0.2,4.4-0.4,6.7-0.5
		c0.1-0.1,0.1-0.2,0.1-0.3c0.1-0.2,0.1-0.5,0.2-0.8l0-0.2c0-0.3,0.1-0.5,0.1-0.8c0-0.1,0-0.3,0-0.4c0-0.2,0-0.4,0-0.6
		c0-0.5,0.1-1.1,0.1-1.6c0-0.2,0-0.4,0-0.6c0-0.3,0-0.6,0-1l0-0.6c0-0.4,0-0.8,0.1-1.3c0-0.6,0-1.1,0-1.7c0-0.6,0-1.2,0-1.8
		c0-1.1,0.1-2.3,0.1-3.6c0-0.5,0-1.1,0-1.6c0-0.6,0.1-1.3,0.1-1.9c0-1.6,0-3.3,0.1-4.9c0-0.9,0-1.9,0.1-2.8c0-1,0-2,0.1-3.1
		c0-1.6,0.1-3.1,0.1-4.7c0-2.4,0-5,0.1-7.7c0-1.5,0.1-2.9,0.1-4.4c0-1.1,0-2.1,0.1-3.2c0-1.2,0-2.3,0-3.5v-0.3c0-0.3,0-0.6,0-1
		c0-0.3,0-0.6,0-1c0-0.6,0-1.2,0-1.8c-0.1-1.4-0.1-2.9-0.1-4.3l0-1.2c0-1,0.1-1.9,0.1-2.9l0.4,0l0.4,0l0.7,0l0.2,0
		c1.3,0,2.7,0.1,4.1,0.1c0.5,0,1,0,1.5,0l1.2,0l0.3,0c0.7,0,1.5,0,2.2-0.1c1.2-0.1,2.4-0.1,3.6-0.1c0.8,0,1.5,0,2.3,0.1l0.2,0l0.2,0
		c0.6,0,1.1,0,1.7,0h0.2c0,0,0.1,0,0.1,0c0.5,0,0.9,0,1.4,0c0.2,0,0.5,0,0.7-0.1l0.3,0c0.2,0,0.4,0,0.6-0.1c0.3-0.1,0.6-0.2,0.7-0.5
		c0.1-0.1,0.1-0.1,0.2-0.2c0.2-0.2,0.3-0.5,0.3-0.9c0-0.4,0-0.7,0-1.1c0-0.3,0-0.6,0-0.8c0-0.8-0.1-1.4-0.2-2
		c-0.1-0.3-0.2-0.6-0.4-0.8c0,0-0.1-0.1-0.1-0.1c-0.2-0.2-0.5-0.4-0.8-0.5c-0.3,0-0.5-0.1-0.8-0.1c-0.7,0-1.4-0.1-2.1-0.1l-0.2,0
		c-0.5,0-0.9,0-1.4,0c-1.1,0-2.2-0.1-3.3-0.1h-0.5l-1.1,0c-0.6,0-1.3,0-1.9,0c-0.3,0-0.6,0-1,0c-1.4,0-2.7-0.1-4.1-0.1
		C563.3,238.1,562,238,560.5,238L560.5,238L560.5,238L560.5,238z"/>
	<path class="st0" d="M641.9,240c-0.1,0.1-0.1,0.2-0.1,0.3c-0.2,1.3-0.3,2.4-0.3,3.5l0,1.1c0,0.8,0,1.5-0.1,2.3
		c-0.1,1.2-0.1,2.3-0.1,3.5l0,0.4c0,1.1-0.1,2.1-0.1,3.2c-0.1,2.3-0.2,4.5-0.4,6.8l-0.1,1.3c-0.1,2-0.2,4-0.3,6l-0.1,1.6l-0.6,0
		c-0.3,0-0.6,0-0.9,0l-0.3,0l-0.8,0c-0.3,0-0.6,0-0.8,0c-0.6,0-1.3,0-1.9-0.1c-0.6,0-1.1,0-1.7-0.1c-1.2,0-2.5-0.1-3.7-0.1
		c-0.4,0-0.8,0-1.2-0.1c-0.7,0-1.5-0.1-2.2-0.1c-1.2,0-2.5,0-3.7,0c-2.7,0-5,0-7.3-0.1c-1.2,0-2.4-0.1-3.7-0.1c-1.2,0-2.3,0-3.5,0.1
		c-0.6,0-1.2,0.1-1.8,0.1c-0.6,0-1.3,0.1-1.9,0.1c-0.7,0-1.4,0-2,0.1c-0.5,0-1,0-1.5,0c-0.3,0-0.7,0-1,0l-0.3,0c0-1.6,0-3.5,0-5.3
		c0-0.8,0.1-1.6,0.1-2.4c0-0.5,0.1-1,0.1-1.5c0.1-1.2,0.1-2.5,0.1-3.8l0-1.7c0-0.8,0-1.7,0-2.5c0-1.3-0.1-2.6-0.2-3.8l0-0.2
		c-0.1-1.2-0.2-2.4-0.2-3.5l0-0.4c0-1.1-0.1-2.3-0.1-3.4c0-0.3-0.1-0.6-0.3-0.8c-0.1-0.1-0.1-0.1-0.2-0.2c0-0.1,0-0.2,0-0.4
		c0,0,0,0,0,0c-1.2,0.1-2.3,0.1-3.5,0.2c-0.9,0-1.7,0.1-2.6,0.1c-0.1,0-0.2,0-0.3,0c-0.2,0.2-0.2,0.4-0.3,0.6c0,0.5,0,1.1-0.1,1.6
		c0,0.8-0.1,1.6-0.1,2.3c0,1.3,0,2.6-0.1,3.8l0,0.3c-0.1,2.3-0.2,4.6-0.1,6.9c0.1,2.5,0.1,5.1,0.1,7.7c-0.1,2.7-0.1,5.1,0,7.3
		c0,2.5,0,4.8,0,7.2c0,1.2,0,2.4,0,3.6c0,1.2,0,2.4,0,3.6c0,1.2,0,2.4,0,3.7c0,0.7,0,1.5,0,2.2v0.4c0,0.3,0,0.6,0,0.9
		c0,1.2,0,2.3,0.1,3.4c0,0.9,0,1.9,0,2.9v0.8c0,1.3,0,2.6,0,4l0,2c0,0.3,0,0.5,0,0.8l0,0.1l0,0.5c0,0.5,0,1,0,1.5c0,0.4,0,0.7,0,1.1
		l0,0.4c0,0.4,0,0.7,0,1.1l0,0.3l0,0.3c0,0.1,0,0.2,0,0.3c0.3,0,0.6,0,1,0c0.9,0,1.8-0.1,2.7-0.1c1.1-0.1,2.2-0.2,3.3-0.4
		c0.1,0,0.2,0,0.2,0c0.2-0.2,0.3-0.5,0.3-0.8c0-0.3,0-0.6,0-0.9l0-0.2c0-0.3,0-0.6,0-0.9c0-0.5,0-0.9-0.1-1.4l0-0.3
		c0-0.7,0-1.5,0-2.1v-0.3c0-0.4,0-0.8,0-1.2c0-0.3,0-0.7,0-1l0-0.2l0-0.6c0-0.6,0-1.3,0-1.9c0-1.3,0-2.7,0-4c0-0.8,0-1.5,0-2.3
		c0-0.5,0-1,0-1.4c0-0.7,0-1.4,0-2.2l0-0.4l0-0.5c0-0.3,0-0.7,0-1c0-0.3,0-0.7,0-1l0-0.2c0-0.2,0-0.4,0-0.6c0-0.6,0-1.3,0-2l0-0.7
		l0-0.7c0-0.8,0-1.6,0-2.4c0-1-0.1-2.1-0.1-3.1c0.9,0,1.9,0,2.8,0c0.8,0,1.6,0,2.4,0c2.6,0.1,5,0.2,7.4,0.2l0.4,0c0.5,0,1.1,0,1.6,0
		c0.5,0,1,0,1.5,0h0.8c1,0,2,0,2.9,0c1.3,0,2.6,0.1,3.8,0.1c0.6,0,1.3,0,1.9,0l0.8,0l0.8,0c2.2,0,4.6,0,7.5,0.1c0.6,0,1.2,0,1.8,0
		c0.6,0,1.2,0,1.8,0c0.2,0,0.3,0,0.5,0c0.4,0,0.8,0,1.2,0l0.2,0l0.2,0c0,0.1,0,0.2,0,0.3l0,1.1c0,1.1-0.1,2.3-0.1,3.4
		c0,1-0.1,2-0.1,3.1l0,0.7c0,1-0.1,2-0.1,2.9c0,0.6,0,1.3,0,1.9l0,0.3c0,0.5,0,0.9,0,1.4c0,1.2-0.1,2.3-0.1,3.5
		c-0.1,1.7-0.1,3.3-0.2,5l-0.1,1.2c-0.1,2.5-0.2,4.9-0.3,7.4c0,0.7,0,1.4-0.1,2.1c0,0.2,0,0.4,0.1,0.6c1.7-0.1,3.3-0.2,5-0.4
		c0.8-0.1,1.6-0.1,2.4-0.2c0,0,0,0,0-0.1c0-0.2,0-0.4,0.1-0.7c0.1-0.6,0.1-1.1,0.1-1.6c0-0.5,0.1-1.1,0.1-1.6c0-0.5,0.1-1.1,0.1-1.6
		c0-0.5,0.1-1.1,0.1-1.6c0-0.6,0.1-1.2,0.1-1.8c0-0.5,0-1,0.1-1.6c0-0.7,0.1-1.3,0.1-2c0-0.9,0.1-1.8,0.1-2.6l0-1c0-0.5,0-1.1,0-1.6
		c0-0.6,0-1.2,0-1.8c0-0.2,0-0.5,0-0.7l0-0.2c0-0.3,0-0.6,0-0.9c0-0.6,0-1.2,0.1-1.8l0-0.2l0-0.2c0-0.4,0-0.8,0-1.3
		c0-0.4,0-0.7,0-1.1l0-0.2l0-0.4c0-4.9,0-9.8,0-14.6c0-1.2,0-2.4,0-3.5c0-0.5,0-1,0-1.5c0-0.7,0.1-1.5,0.1-2.2v-1.5v-0.3
		c0-1.7,0-3.5,0-5.3c0-0.5,0-1,0.1-1.5c0-0.6,0.1-1.3,0.1-1.9c0-0.4,0-0.8,0-1.2c0-0.7,0.1-1.6,0-2.4c0-0.9-0.1-1.8-0.1-2.7
		c-0.1-1.3-0.2-2.8-0.1-4.2l0-0.4c0-0.4,0-0.8,0-1.1c-0.1-0.3-0.2-0.8-0.5-1.1c-0.3-0.3-0.7-0.5-1.1-0.6c-0.3,0-0.5-0.1-0.9-0.1
		h-0.1c-0.1,0-0.3,0-0.4,0c-0.5,0-0.9,0-1.4-0.1C642.5,238.8,642,239.3,641.9,240L641.9,240L641.9,240z"/>
	<path class="st0" d="M674.3,242c-1,0-2,0.1-2.8,0.2c-0.3,0-0.6,0.3-0.7,0.5c-0.1,0.1-0.1,0.2-0.1,0.3c0,0-0.1,0.1-0.1,0.1
		c-0.2,0.1-0.3,0.4-0.3,0.7c0.1,0.7,0.1,1.4,0.1,2c0,0.4,0,0.7,0,1.1l0,0.8c0,1.3,0,2.5-0.1,3.6c0,1.1-0.1,2.3,0,3.5
		c0,1,0,2.1,0,3.1v0.7c0,2.2-0.1,4.4-0.3,6.5l0,0.6c-0.1,0.9-0.1,1.8-0.2,2.8c-0.1,1.5-0.2,3.1-0.3,4.6c-0.1,1.6-0.1,3.3-0.1,4.9
		c0,0.8,0,1.7,0,2.5c0,1.1-0.1,2.2-0.2,3.3c-0.1,1.2-0.1,2.5-0.2,3.8c0,1.2-0.1,2.4-0.1,3.5c0,0.7,0,1.4,0,2.1c0,0.5,0,1,0,1.5
		c0,1.2,0,2.3,0,3.5c0,1.1,0,2.2,0,3.3l0,0.2c0,0.6,0,1.2,0,1.8l0,0.4l0,1.1l0,1.1c0,1.4,0,2.9,0.1,4.4c0,0.2,0,0.3,0.1,0.5
		c1.6,0.2,3.3,0.2,4.9,0.2c1,0,2.1,0,3.1,0.1c0-0.1,0-0.2,0-0.3c0-0.3,0-0.6-0.1-0.9l0-0.2c0-0.7,0-1.4,0-2.1c0-0.4,0-0.8,0-1.2
		c0-0.7,0-1.5,0.1-2.2c0-0.5,0-1,0-1.5c0-0.5,0-0.9,0-1.4c0-0.8,0-1.6,0.1-2.4c0-1.1,0.1-2.4,0.1-3.8c0-0.7,0-1.4,0-2.1
		c0-0.6,0-1.1,0-1.7c0-0.3,0-0.7,0-1c0-0.3,0-0.6,0-0.8l0-0.3c0-0.6,0-1.1,0-1.7c0-0.7,0.1-1.4,0.1-2.1c0-0.6,0.1-1.2,0.1-1.8
		c0-1.1,0.1-2.1,0.1-3.2l0-0.5c0-0.6,0-1.3,0-1.9c0-0.7,0-1.3,0-2c0-1.1,0.1-2.3,0.1-3.4l0-0.7c0-0.7,0-1.4,0-2.1c0-0.5,0-1.1,0-1.6
		c0-0.5,0-0.9,0-1.4c0-0.8,0-1.7,0.1-2.5l0-0.8c0.1-1.1,0.1-2.1,0.1-3.2c0-0.6,0-1.3,0-1.9c0-0.6,0-1.3,0-1.9c0-1.2,0.1-2.3,0.2-3.5
		c0.1-1.4,0.1-2.9,0.2-4.3c0-1,0-1.8,0-2.7c0-0.5,0-1-0.1-1.6c0-0.2,0-0.4-0.1-0.7c-0.1-0.7-0.3-1.2-0.8-1.5c-0.3-0.2-0.6-0.2-1-0.3
		c-0.2,0-0.4,0-0.5,0l-0.1,0c-0.4,0-0.8,0-1.3,0H674.3L674.3,242L674.3,242z"/>
	<path class="st0" d="M714.1,235.8c-1.2,0.1-2.6,0.2-3.9,0.4c-1.2,0.2-2.4,0.5-3.5,0.8c-1.4,0.4-2.6,1-3.6,1.5
		c-1.2,0.6-2.3,1.3-3.2,2.1c-0.5,0.4-1,0.9-1.5,1.5c-0.5,0.5-0.8,1-1.2,1.5c-0.7,1.2-1.3,2.6-1.7,3.8c-0.2,0.6-0.4,1.2-0.6,1.8
		c-0.2,0.7-0.3,1.4-0.5,2.3c-0.3,1.3-0.2,2.7-0.2,3.8c0,1.2,0.2,2.6,0.6,4.3c0.3,1.5,0.7,2.8,1.2,3.9c0.3,0.6,0.7,1.2,1.1,1.8
		c0.4,0.5,0.8,1,1.3,1.5c0.5,0.5,1.1,1,1.7,1.5c0.4,0.4,1,0.8,1.5,1.2c0.5,0.3,1.1,0.7,1.8,1.1c0.7,0.4,1.4,0.7,2,1
		c0.5,0.2,1.1,0.5,1.6,0.6c0.6,0.2,1.2,0.4,1.8,0.6c1,0.3,2.2,0.5,3.7,0.7c0.8,0.1,1.6,0.2,2.4,0.4c0.4,0.1,0.8,0.1,1.3,0.2
		c1.2,0.2,2.4,0.4,3.7,0.6c0.9,0.2,1.8,0.4,2.6,0.6c1,0.3,1.9,0.6,2.7,1c0.5,0.3,1.1,0.6,1.7,0.9c0.5,0.3,1.1,0.7,1.6,1.2
		c0.6,0.6,1.2,1.1,1.8,1.8c0.5,0.6,1,1.1,1.5,1.7c0.3,0.4,0.6,0.9,0.9,1.5c0.2,0.5,0.4,1,0.6,1.4l0.1,0.2c0.1,0.4,0.3,1,0.4,1.5
		c0.1,0.5,0.2,1.1,0.3,1.6c0.1,0.8,0.1,1.7,0,2.5c0,0.8-0.2,1.6-0.3,2.4c-0.1,0.7-0.3,1.5-0.6,2.4c-0.2,0.7-0.5,1.4-0.8,2.1
		c-0.3,0.6-0.6,1-0.9,1.4c-1,1-2.1,2-3.5,3c-1.9,1.2-4,2-6.1,2.8c-1.2,0.4-2.1,0.7-3,0.9c-1.2,0.3-2.4,0.4-3.4,0.5
		c-0.8,0.1-1.9,0.1-2.9,0.1l-0.3,0c-0.9,0-1.8-0.1-2.8-0.3c-1-0.2-1.9-0.5-2.9-0.7l-0.5-0.1l-0.6-0.2c-0.9-0.2-1.8-0.5-2.7-0.9
		c-0.7-0.4-1.4-0.8-2.1-1.3c-0.2-0.1-0.4-0.2-0.6-0.4c-0.5-0.3-0.9-0.6-1.4-0.9c-0.5-0.5-1-1-1.5-1.7c-0.1-0.2-0.3-0.5-0.4-0.7
		c-0.1-0.1-0.1-0.3-0.2-0.4c-0.1-0.2-0.2-0.4-0.3-0.6c-0.1-0.2-0.3-0.5-0.5-0.7c-0.1-0.1-0.1-0.1-0.2-0.2c-0.3,0.3-0.7,0.7-1,1
		c-1,0.9-1.9,1.8-2.9,2.7c-0.9,0.8-1.9,1.6-2.8,2.4c0.2,0.3,0.4,0.6,0.6,0.9c1.7,2.1,3.3,4.2,5.4,5.8c1.1,0.8,2.2,1.6,3.3,2.3
		c1.1,0.7,2.4,1.4,3.8,2.1c1.4,0.6,2.7,1.1,3.9,1.4c1.6,0.4,3,0.6,4.2,0.7c1.1,0.1,1.9,0.1,2.6,0.1c0.5,0,0.9,0,1.4,0
		c1.6-0.1,2.9-0.2,4.2-0.4c0.8-0.1,1.5-0.2,2.1-0.3c0.6-0.1,1.2-0.3,1.8-0.5c1.4-0.4,2.7-1,4-1.6c1.4-0.6,2.6-1.2,3.7-1.9
		c1.3-0.7,2.5-1.6,3.4-2.3c1.2-0.9,2.2-1.8,3-2.9c0.8-0.9,1.5-2.1,2.2-3.4c0.3-0.6,0.6-1.2,0.9-2l0-0.1c0.2-0.6,0.4-1.1,0.6-1.7
		c0.4-1.4,0.7-2.9,0.8-4.2c0.1-1.3,0.1-2.7,0.2-4l0-0.2c0-1.7,0-3-0.2-4.2c-0.1-0.8-0.3-1.5-0.4-2.1c-0.1-0.6-0.3-1.2-0.5-1.7l0-0.1
		c-0.4-1.1-0.9-2.1-1.4-3.1c-0.1-0.3-0.3-0.5-0.4-0.8c-0.6-1.2-1.3-2.4-2-3.6c-0.4-0.7-0.9-1.3-1.3-1.8c-0.4-0.5-0.9-0.9-1.3-1.3
		l-0.1-0.1c-0.5-0.4-1.1-1-1.7-1.5c-0.4-0.4-0.9-0.7-1.6-1.1c-1.1-0.7-2.3-1.3-3.9-1.9c-1-0.4-2-0.8-3-1.1l-0.9-0.3
		c-1.2-0.4-2.3-0.8-3.5-1.2c-0.8-0.2-1.7-0.5-2.8-0.7c-1-0.2-2-0.5-3-0.8c-0.3-0.1-0.6-0.2-0.9-0.3c-0.6-0.2-1.2-0.3-1.8-0.5
		c-1-0.4-1.9-0.7-2.8-1.1c-0.6-0.3-1.4-0.7-2.1-1.3c-0.5-0.5-1-1.1-1.5-1.8c-0.2-0.3-0.4-0.6-0.5-0.9c-0.1-0.3-0.3-0.5-0.4-0.8
		c-0.2-0.5-0.2-1-0.3-1.4c0-0.8,0.1-1.5,0.2-2.4c0.2-0.7,0.3-1.3,0.6-1.8c0.5-0.9,1.2-1.9,2-2.9c0.5-0.5,1-1,1.6-1.4
		c1.6-1.1,3.4-1.9,5.6-2.7c0.5-0.1,1-0.3,1.5-0.4c0.4-0.1,0.8-0.1,1.4-0.2c0.3,0,0.5,0,0.8,0c1,0,2,0.1,2.8,0.2
		c0.6,0.1,1.2,0.2,1.8,0.2l0.6,0.1c0.3,0,0.6,0.1,0.9,0.1c0.8,0.2,1.6,0.4,2.4,0.7c0.8,0.3,1.6,0.5,2.2,0.8c1.1,0.6,2.1,1.4,2.9,2.1
		c0.3,0.3,0.6,0.5,0.8,0.8c0.3,0.5,0.5,1,0.7,1.5c0,0.1,0.1,0.2,0.1,0.2c0.3-0.2,0.7-0.5,1-0.7c1.7-1.1,3.4-2.2,5.1-3.3
		c0,0,0,0,0-0.1c-0.1-0.3-0.2-0.5-0.3-0.8c-0.2-0.3-0.4-0.7-0.6-0.9l0.1,0.2c-0.7-1-1.4-1.9-2.2-2.7c-0.2-0.2-0.4-0.4-0.6-0.6
		c-0.1-0.1-0.2-0.2-0.3-0.2c-0.1-0.1-0.1-0.1-0.2-0.2l-0.1-0.1l0,0c-0.1-0.1-0.2-0.2-0.4-0.3c-0.8-0.6-1.8-1.5-3-2.1
		c-1.2-0.6-2.4-1-3.6-1.4c-0.3-0.1-0.6-0.2-0.9-0.3c-1-0.3-2-0.7-3.1-0.9c-0.6-0.1-1.3-0.2-1.9-0.3l-0.3,0c-0.5-0.1-1.1-0.1-1.6-0.1
		c-0.7,0-1.4,0-2,0C715.5,235.7,714.8,235.7,714.1,235.8L714.1,235.8L714.1,235.8z"/>
	<path class="st0" d="M110.3,333.2c-0.3,0.2-0.5,0.5-0.6,0.8c0,0,0,0,0,0c0,0,0,0,0,0c0,0,0,0,0,0c0,0.1,0,0.2,0,0.3
		c0,0.4,0.1,0.7,0.4,1c0.2,0.2,0.4,0.3,0.6,0.4c0.1,0,0.2,0,0.2,0c0,0,0.1,0,0.1,0c2.8,0,5.5,0,8.3,0c3.6,0,7.2,0,10.8,0
		c8,0,16.1,0,24.1,0c16.5,0,33.1,0,49.6,0c36.9,0,73.8,0,110.7,0c77.2,0,154.4,0,231.6,0c18.4,0,36.8,0,55.2,0c29.2,0,58.3,0,87.5,0
		c7,0,14.1,0,21.1,0c1.1,0,2.2,0,3.4,0c1.2,0,2.3,0,3.5,0c1.2,0,2.5,0,3.7,0c3.9,0,7.7,0,11.6,0c1.2,0,2.4,0,3.5,0
		c0.7,0,1.4-0.6,1.4-1.4c0-0.7-0.6-1.4-1.4-1.4c-1.2,0-2.4,0-3.5,0c-3.7,0-7.4,0-11.1,0c-0.2,0-0.4,0-0.5,0c-0.5,0-1,0-1.5,0
		c-0.4,0-0.8,0-1.2,0c-1.7,0-3.3,0-5,0c-8,0-16,0-24.1,0c-22.4,0-44.9,0-67.3,0c-20.4,0-40.8,0-61.2,0c-22,0-43.9,0-65.9,0
		c-77,0-154.1,0-231.1,0c-27.2,0-54.4,0-81.6,0c-12.8,0-25.6,0-38.4,0c-5.7,0-11.3,0-17,0c-2.9,0-5.8,0-8.7,0c-2.2,0-4.3,0-6.5,0
		c0,0-0.1,0-0.1,0C110.8,333,110.5,333.1,110.3,333.2L110.3,333.2L110.3,333.2z"/>
</g>
<g>
	<path class="st0" d="M469,396.9c-0.7,0-1.3,0-2,0c-0.6,0-1.3,0-1.9,0c-0.7,0-1.3,0.1-2,0.1c-1.4,0.1-2.7,0.1-4.1,0.1
		c-0.6,0-1.3,0-1.9,0c-0.8,0-1.5,0.1-2.3,0.2c-1.3,0.1-2.5,0.3-3.7,0.4c-0.7,0-1.4,0.1-2.2,0.1c-0.4,0-0.7,0.1-1,0.3
		c-0.3,0.2-0.4,0.6-0.4,0.9c0,0.7,0.5,1.4,1.3,1.4c1.4,0,2.8-0.1,4.2-0.3c1.2-0.2,2.4-0.3,3.7-0.4c1.1-0.1,2.3,0,3.5,0
		c1.2,0,2.4-0.1,3.6-0.2c1.2-0.1,2.4-0.1,3.6-0.1c0.6,0,1.1,0,1.7,0c0.6,0,1.3,0,1.9,0c0.4,0,0.7-0.1,1-0.3c0.3-0.2,0.4-0.6,0.4-0.9
		c0-0.7-0.5-1.4-1.3-1.4c-0.3,0-0.6,0-0.9,0C469.7,396.9,469.4,396.9,469,396.9L469,396.9L469,396.9z M450.8,397.9
		C450.8,397.9,450.8,397.9,450.8,397.9C450.8,397.9,450.8,397.9,450.8,397.9L450.8,397.9L450.8,397.9z"/>
	<path class="st0" d="M447.6,398.7c-0.2,0.2-0.5,0.6-0.5,0.9c0.1,1.5,0,2.9,0,4.4c0,1.4,0,2.8,0,4.1c0,0.7-0.1,1.4-0.1,2.1
		c0,0.7,0,1.3,0,2c0,1.4,0,2.7,0,4.1c0,1.4,0,2.8,0,4.1c0,0.7,0,1.3,0,2c0,0.7,0,1.4,0,2.1c0,1.3,0,2.7,0.1,4c0.1,1.3,0.1,2.7,0.1,4
		c0,1.5,0,3.1,0.2,4.6c0.1,0.6,0.7,1,1.2,1.1c0.4,0,0.7-0.1,1-0.3c0.2-0.2,0.5-0.6,0.4-0.9c-0.1-1.4-0.1-2.8-0.1-4.3
		c0-1.4,0-2.7-0.1-4.1c-0.1-1.3-0.1-2.6-0.1-4c0-0.7,0-1.5,0-2.2c0-0.7,0-1.3,0-2c0-1.4,0.1-2.8,0-4.1c0-1.4-0.1-2.7,0-4.1
		c0-0.7,0-1.4,0-2c0-0.7,0.1-1.3,0.1-2c0-1.4,0-2.8,0-4.2c0-1.4,0-2.8,0-4.2c0-0.4-0.1-0.7-0.3-1c-0.2-0.3-0.6-0.4-0.9-0.5
		c0,0-0.1,0-0.1,0C448.2,398.3,447.9,398.5,447.6,398.7L447.6,398.7L447.6,398.7z"/>
	<path class="st0" d="M466,415.5c-0.6,0-1.3,0-1.9,0.1c-0.6,0-1.2,0.1-1.8,0.1s-1.2,0-1.8,0c-0.7,0-1.4,0-2.1,0
		c-1.2,0-2.4,0.1-3.5,0.1c-1.3,0.1-2.7,0.1-4,0.3c-0.5,0.1-1,0.1-1.6,0.2c-0.6,0.1-1,0.6-1,1.2c0,0.3,0.1,0.7,0.3,0.9
		c0.2,0.2,0.6,0.4,0.9,0.4c1.2,0,2.4-0.2,3.6-0.3c1.6-0.1,3.3-0.2,4.9-0.3c0.9,0,1.7,0,2.6,0c0.4,0,0.9,0,1.3,0c0.5,0,1-0.1,1.6-0.1
		c0.4,0,0.9-0.1,1.3-0.1c-0.1,0-0.1,0-0.2,0c0.4,0,0.9,0,1.3-0.1c0.3,0,0.6-0.1,0.9-0.3c0.2-0.2,0.4-0.5,0.4-0.9s-0.1-0.7-0.3-0.9
		C466.7,415.7,466.4,415.5,466,415.5C466.1,415.5,466,415.5,466,415.5L466,415.5L466,415.5z M453.3,418.5c0,0-0.1,0-0.1,0
		C453.2,418.5,453.3,418.5,453.3,418.5L453.3,418.5L453.3,418.5z"/>
	<path class="st0" d="M479.5,409.6c-0.3,0.2-0.4,0.6-0.5,0.9c-0.1,0.7-0.2,1.3-0.2,2c0,0.7,0,1.3,0,2c0,1.4,0,2.7-0.1,4.1
		c-0.1,1.4-0.1,2.8-0.1,4.2c0,0.7,0,1.4,0.1,2.1c0,0.7,0,1.3,0,2c0,0.7,0,1.5,0,2.2c0,0.8,0,1.6,0,2.4c0,0.8,0,1.5,0,2.3
		c0,0.5,0,1,0.1,1.4c0,0.2,0,0.4,0,0.6c0,0.1,0,0.2,0,0.3c0,0.2,0.1,0.4,0.2,0.6c0.2,0.4,0.7,0.7,1.1,0.7c0.5,0,0.9-0.2,1.2-0.6
		c0.3-0.4,0.3-0.9,0.3-1.3c0-0.2,0-0.5,0-0.7c0-0.5,0-1,0-1.5c0-1,0-2.1,0.1-3.2c0-1,0.1-2,0.1-2.9c0.1-0.9,0.1-1.7,0.3-2.6
		c0.2-0.8,0.4-1.6,0.7-2.3c0.3-0.7,0.6-1.5,0.9-2.2c0.3-0.6,0.6-1.2,1-1.8c0.4-0.6,0.8-1.2,1.2-1.7c0.2-0.2,0.4-0.4,0.6-0.6
		c0.2-0.2,0.5-0.4,0.8-0.6c0.5-0.3,1-0.6,1.5-0.9c0.3-0.1,0.7-0.1,1-0.2c0.3,0,0.6,0,0.9,0c0.1,0,0.2,0.1,0.4,0.1
		c0.7,0.2,1.5-0.1,1.7-0.8c0.1-0.3,0.1-0.7-0.1-1c-0.2-0.3-0.4-0.5-0.8-0.7c-1-0.5-2.2-0.4-3.3-0.2c-0.7,0.1-1.4,0.4-2,0.8
		c-0.3,0.2-0.6,0.4-0.8,0.6c-0.4,0.2-0.7,0.5-1.1,0.8c-0.5,0.5-1,1-1.4,1.6c-0.8,0.9-1.3,2-1.9,3.1c-0.1,0.2-0.2,0.5-0.4,0.7
		c0-0.2,0-0.4,0-0.6c0.1-1.3,0.1-2.7,0-4.1c0-0.6,0-1.2,0-1.8c0-0.7,0.1-1.3,0.2-2c0.1-0.7-0.6-1.4-1.3-1.4c0,0-0.1,0-0.1,0
		C480.1,409.3,479.8,409.4,479.5,409.6L479.5,409.6L479.5,409.6z M486.2,416.7C486.2,416.7,486.1,416.7,486.2,416.7
		C486.1,416.7,486.2,416.7,486.2,416.7L486.2,416.7L486.2,416.7z M484.1,420c0,0.1-0.1,0.1-0.1,0.2C484,420.1,484.1,420,484.1,420
		L484.1,420L484.1,420z M484,420.2c0,0,0,0.1-0.1,0.1C483.9,420.3,484,420.2,484,420.2L484,420.2L484,420.2z"/>
	<path class="st0" d="M509.2,410.8c-0.5,0.1-1.1,0.1-1.6,0.3c-0.6,0.1-1.1,0.4-1.7,0.6c-1,0.4-2,1-2.8,1.8c-0.5,0.4-0.9,0.9-1.3,1.4
		c-0.3,0.4-0.6,0.9-0.9,1.4c-0.6,1-1.2,2.1-1.6,3.3c-0.2,0.6-0.3,1.3-0.4,1.9c-0.1,0.5-0.1,1.1-0.2,1.6c-0.1,1.1-0.2,2.2-0.1,3.3
		c0.1,1.2,0.2,2.4,0.6,3.5c0.4,1.2,0.9,2.3,1.7,3.4c0.7,1,1.5,1.9,2.5,2.6c1.1,0.7,2.3,1.1,3.5,1.4c0,0,0,0,0,0c0,0,0,0,0,0
		c0,0,0.1,0,0.1,0c0,0,0.1,0,0.1,0c0,0,0,0-0.1,0c1.1,0.2,2.2,0.3,3.4,0.4c0.7,0,1.4,0,2-0.1c0.5-0.1,1.1-0.2,1.6-0.3
		c0.6-0.2,1.1-0.4,1.7-0.7c0.6-0.3,1.1-0.7,1.6-1.1c0.9-0.7,1.7-1.6,2.5-2.4c0.3-0.4,0.7-0.8,1-1.3c0.3-0.5,0.6-1,0.8-1.6
		c0.4-1,0.7-2.2,0.9-3.3c0.2-1.1,0.3-2.1,0.2-3.2c0-0.7-0.1-1.4-0.2-2c-0.1-0.5-0.2-1.1-0.3-1.6c-0.2-0.7-0.4-1.3-0.7-1.9
		c-0.2-0.5-0.5-1.1-0.8-1.6c-0.4-0.6-0.9-1.1-1.4-1.6c-0.5-0.5-1.1-1-1.7-1.4c-0.4-0.2-0.8-0.3-1.2-0.1c0-0.2-0.2-0.4-0.4-0.6
		c-0.5-0.3-1.1-0.6-1.6-0.9c-0.5-0.2-1-0.4-1.5-0.6c-0.5-0.2-1.1-0.3-1.6-0.4c-0.2,0-0.4,0-0.6,0
		C510.1,410.7,509.7,410.8,509.2,410.8L509.2,410.8L509.2,410.8z M512.1,412.9c0.3,0.1,0.5,0.1,0.8,0.2c0.3,0.1,0.7,0.2,1,0.4
		c0.4,0.2,0.8,0.4,1.2,0.6c0.2,0.1,0.5,0.2,0.7,0.1c0,0.3,0.1,0.6,0.3,0.8c0.5,0.4,0.8,0.8,1.3,1.3c0.3,0.4,0.7,0.8,1,1.2
		c0.5,0.8,0.9,1.6,1.2,2.4c0.1,0.5,0.3,1,0.3,1.4c0.1,0.6,0.2,1.1,0.2,1.7c0.1,1.5,0,3-0.3,4.5c-0.1,0.6-0.3,1.2-0.6,1.7
		c-0.3,0.6-0.7,1.1-1.2,1.7c-0.5,0.5-0.9,1-1.5,1.5c-0.5,0.4-1,0.8-1.6,1.2c-0.4,0.2-0.8,0.5-1.2,0.6c-0.3,0.1-0.6,0.2-1,0.3
		c-0.4,0.1-0.8,0.1-1.3,0.2c-0.6,0-1.3,0-1.9-0.1c-0.7-0.1-1.3-0.1-2-0.3c0.1,0,0.2,0,0.2,0c-0.1,0-0.2,0-0.3-0.1c0,0,0,0-0.1,0
		c0,0,0,0,0,0c-0.1,0-0.2,0-0.3,0c0.1,0,0.2,0,0.3,0c-0.7-0.1-1.3-0.3-1.9-0.6c-0.4-0.2-0.8-0.5-1.2-0.8c-0.5-0.5-1-1.1-1.4-1.6
		c-0.5-0.7-0.8-1.5-1.1-2.2c-0.3-0.8-0.4-1.7-0.5-2.5c0-0.9,0-1.9,0.1-2.8c0.1-1,0.1-1.9,0.3-2.9c0.1-0.3,0.2-0.6,0.3-0.9
		c0.1-0.4,0.3-0.7,0.5-1c0.5-1.1,1.1-2.2,1.9-3.1c0.5-0.5,1-1,1.5-1.4c0.7-0.5,1.5-0.8,2.3-1.1c0.8-0.3,1.7-0.4,2.6-0.5
		C511.1,412.8,511.6,412.8,512.1,412.9L512.1,412.9L512.1,412.9z M512.1,412.9C512.2,412.9,512.2,412.9,512.1,412.9
		C512.2,412.9,512.2,412.9,512.1,412.9L512.1,412.9L512.1,412.9z M501.3,426.3C501.3,426.3,501.3,426.4,501.3,426.3
		C501.3,426.4,501.3,426.3,501.3,426.3L501.3,426.3L501.3,426.3z M518.1,430.8C518.1,430.9,518.1,430.9,518.1,430.8
		C518.1,430.9,518.1,430.9,518.1,430.8L518.1,430.8L518.1,430.8z M514.9,433.7c-0.1,0.1-0.1,0.1-0.2,0.2
		C514.8,433.8,514.8,433.7,514.9,433.7L514.9,433.7L514.9,433.7z M507.2,437.1C507.2,437.1,507.1,437.1,507.2,437.1
		C507.1,437.1,507.2,437.1,507.2,437.1L507.2,437.1L507.2,437.1z M507.5,434.4C507.5,434.4,507.5,434.4,507.5,434.4
		C507.5,434.4,507.5,434.4,507.5,434.4C507.5,434.4,507.5,434.4,507.5,434.4L507.5,434.4L507.5,434.4z"/>
	<path class="st0" d="M544.8,409.7c-0.6,0.1-1.2,0.3-1.8,0.6c-0.5,0.2-1,0.6-1.5,0.9c-0.9,0.6-1.5,1.5-2.1,2.3
		c-0.7,1-1.1,2.1-1.5,3.2c-0.1,0.4-0.2,0.8-0.4,1.2c0-0.5,0-1-0.1-1.6c0-0.9-0.1-1.7-0.1-2.6c0-0.5-0.1-1.1-0.1-1.6
		c0-0.4-0.1-0.9-0.1-1.3c0-0.3-0.2-0.5-0.5-0.7c-0.2-0.2-0.5-0.2-0.8-0.2c-0.3,0.1-0.5,0.2-0.7,0.5c-0.2,0.3-0.2,0.5-0.2,0.8
		c0,0.3,0.1,0.7,0.1,1.1c0.1,1.2,0,2.4,0,3.6c0,1.2,0,2.5,0,3.7c0,1.2,0,2.5,0,3.7c0,1.2,0,2.4,0,3.6c0,1.5,0.1,3.1,0.1,4.6
		c0,0.7,0,1.4,0.1,2.1c0,0.4,0,0.8,0,1.1c0,0.3,0,0.6,0,0.8c0,0.2,0,0.4,0.1,0.6c0.1,0.3,0.2,0.6,0.5,0.8c0.3,0.2,0.6,0.3,1,0.2
		c0.3-0.1,0.6-0.3,0.8-0.5c0.1-0.2,0.2-0.5,0.2-0.7c0-0.3,0-0.5,0-0.8c0-0.3,0-0.6,0-1c0-0.2,0-0.5,0-0.7c0-0.4,0-0.9,0.1-1.3
		c0-0.6,0.1-1.2,0.1-1.8c0.1-0.6,0.1-1.2,0.2-1.9c0.1-1.3,0.2-2.5,0.3-3.8c0.1-1.2,0.2-2.3,0.4-3.5c0.2-1,0.4-1.9,0.6-2.9
		c0.2-0.9,0.5-1.8,0.9-2.7c0.3-0.7,0.8-1.3,1.3-1.9c0.3-0.3,0.6-0.5,0.9-0.8c0.4-0.3,0.9-0.5,1.3-0.7c0.4-0.1,0.8-0.2,1.2-0.3
		c0.2,0,0.4,0,0.7,0c0.2,0.1,0.4,0.1,0.6,0.2c0.3,0.2,0.6,0.4,0.9,0.6c0.6,0.6,1.1,1.2,1.6,1.9c0.5,0.7,0.9,1.5,1.2,2.3
		c0.6,1.7,0.8,3.4,1,5.2c0-0.1,0-0.2,0-0.4c0,0.5,0.1,1,0.1,1.5c0.1,0.9,0.1,1.8,0.1,2.6c0,0.9,0.1,1.8,0.1,2.7c0,0.5,0,0.9,0,1.4
		c0,0.5,0,1,0,1.5c0,1.1,0,2.1,0,3.2c0,0.7,0.5,1.4,1.3,1.4c0.7,0,1.4-0.5,1.4-1.3c0-1.1,0-2.3,0-3.4c0-0.5,0-1,0-1.5
		c0-0.5,0-1,0-1.5c-0.1-1-0.1-2-0.1-3.1c0-1.1-0.1-2.2-0.2-3.4c0,0.1,0,0.2,0,0.4c-0.1-1.1-0.2-2.2-0.4-3.3c-0.2-1-0.5-2-0.8-3
		c-0.2-0.5-0.4-1-0.6-1.5c-0.3-0.5-0.6-1-0.9-1.5c-0.3-0.5-0.7-1-1.1-1.4c-0.4-0.5-0.9-0.9-1.4-1.3c-0.5-0.3-1.1-0.7-1.7-0.8
		c-0.4-0.1-0.7-0.2-1.1-0.2c-0.1,0-0.1,0-0.2,0C545.4,409.6,545.1,409.7,544.8,409.7L544.8,409.7L544.8,409.7z M552.8,416.3
		c0,0.1,0,0.1,0.1,0.2c0-0.1-0.1-0.2-0.1-0.3C552.8,416.2,552.8,416.2,552.8,416.3L552.8,416.3L552.8,416.3z"/>
	<path class="st0" d="M562.7,410.6c-0.4,0-0.8,0.1-1.2,0.1c-0.4,0.1-0.9,0.2-1.3,0.4c-0.5,0.3-1,0.6-1.5,0.9
		c-0.6,0.4-1.1,0.8-1.7,1.2c-0.5,0.3-0.9,0.7-1.3,1.1c-0.5,0.5-1,1-1.4,1.6c-0.2,0.3-0.3,0.6-0.5,0.9c-0.1,0.3-0.3,0.6-0.4,0.8
		c-0.4,0.9-0.7,1.7-1,2.6c-0.1,0.5-0.3,1-0.3,1.5c-0.1,0.5-0.1,1.1-0.1,1.6c0,0.6,0.4,1.1,1,1.1c0.6,0,1.1-0.4,1.1-1
		c0-0.5,0-1.1,0.1-1.6c0.2-1,0.6-2,1.1-2.9c0.2-0.4,0.4-0.7,0.6-1.1c0.2-0.3,0.4-0.6,0.6-0.9c0.7-0.8,1.6-1.4,2.4-2.1
		c0.4-0.3,0.9-0.6,1.3-0.9c0.4-0.3,0.9-0.5,1.4-0.8c0.2-0.1,0.4-0.1,0.7-0.1c0.5,0,1.1,0,1.6,0.1c0.4,0.1,0.9,0.3,1.3,0.5
		c0.4,0.2,0.7,0.4,1,0.7c0.3,0.3,0.6,0.6,0.8,0.9c0.5,0.7,0.9,1.5,1.2,2.4c0.3,1.1,0.5,2.1,0.6,3.2c0,0,0,0,0,0
		c0,0.4,0.1,0.7,0.1,1.1c0.1,1,0.1,2,0.2,3c0,0.6,0,1.1,0,1.7c0,0.6,0,1.1,0,1.7c0,1.2,0,2.4,0,3.5c0,1.3-0.1,2.6-0.1,3.9
		c0,0.7,0.5,1.4,1.3,1.4c0.7,0,1.4-0.5,1.4-1.3c0.1-1.3,0.2-2.7,0.2-4c0-0.6,0-1.2,0-1.8c0-0.6,0-1.2,0-1.8c0-2.5-0.1-4.9-0.3-7.4
		c0,0,0-0.1,0-0.1c0,0,0,0.1,0,0.1c-0.1-1.3-0.3-2.5-0.7-3.8c-0.4-1.1-0.9-2.2-1.5-3.1c-0.2-0.3-0.4-0.5-0.6-0.8
		c-0.2-0.2-0.4-0.4-0.6-0.6c-0.3-0.3-0.6-0.5-0.9-0.7c-0.3-0.2-0.6-0.4-0.9-0.5c-0.6-0.3-1.2-0.5-1.8-0.7c-0.5-0.1-1-0.2-1.6-0.2
		C563,410.6,562.9,410.6,562.7,410.6L562.7,410.6L562.7,410.6z M568.9,420.6c0,0.1,0,0.1,0,0.2C568.9,420.8,568.9,420.7,568.9,420.6
		L568.9,420.6L568.9,420.6z M569,421.7c0,0.1,0,0.2,0,0.2C569,421.9,569,421.8,569,421.7L569,421.7L569,421.7z M569.5,414
		C569.5,414.1,569.5,414.1,569.5,414C569.5,414.1,569.5,414,569.5,414C569.4,414,569.5,414,569.5,414L569.5,414L569.5,414z
		 M569.4,414c0-0.1-0.1-0.1-0.1-0.2C569.3,413.9,569.4,413.9,569.4,414L569.4,414L569.4,414z M566.6,411.5c0,0,0.1,0,0.1,0.1
		C566.6,411.5,566.5,411.4,566.6,411.5C566.5,411.4,566.5,411.4,566.6,411.5L566.6,411.5L566.6,411.5z M566.5,411.4
		c0,0-0.1,0-0.1-0.1C566.4,411.4,566.4,411.4,566.5,411.4L566.5,411.4L566.5,411.4z"/>
	<path class="st0" d="M599.7,399.8c-0.5,0.5-0.6,1.3-0.1,1.8c0.9,1.1,1.7,2.1,2.6,3.2c0.9,1,1.7,2.1,2.6,3.1
		c0.9,1.1,1.6,2.2,2.4,3.3c0.8,1.1,1.6,2.2,2.4,3.3c1.3,1.8,2.6,3.7,4,5.4c0.5,0.6,1.4,0.6,1.9,0.1c0.3-0.2,0.4-0.6,0.5-0.9
		c0-0.4-0.1-0.7-0.3-1c-1.7-2.2-3.3-4.5-5-6.7c-0.8-1.1-1.6-2.2-2.4-3.3c-0.8-1.1-1.6-2.1-2.5-3.2c-1.4-1.7-2.9-3.3-4.2-5
		c-0.2-0.3-0.6-0.4-1-0.4C600.2,399.5,599.9,399.6,599.7,399.8L599.7,399.8L599.7,399.8z"/>
	<path class="st0" d="M624.8,398.8c-0.3,0.2-0.5,0.4-0.6,0.7c-0.1,0.3-0.3,0.6-0.4,0.9c-0.6,1.1-1.2,2.2-1.8,3.3
		c-0.7,1.1-1.2,2.3-1.9,3.5c-0.7,1.3-1.4,2.5-2.1,3.8c-0.6,1.1-1.2,2.3-1.9,3.5c-0.5,0.9-1,1.9-1.5,2.8c-0.5,1-1,2-1.5,3
		c-0.8,1.7-1.6,3.3-2.4,5c-1,2-2,3.9-3,5.9c-1.1,2.3-2.2,4.6-3.3,6.9c-0.1,0.3-0.1,0.7,0.1,1c0.1,0.3,0.4,0.5,0.7,0.6
		c0.3,0.1,0.7,0.1,1-0.1c0.3-0.2,0.5-0.4,0.6-0.7c0.4-0.9,0.9-1.8,1.3-2.7c1.2-2.5,2.5-4.9,3.8-7.4c1.3-2.5,2.4-5,3.6-7.5
		c0.2-0.4,0.4-0.8,0.6-1.2c1.1-2.2,2.3-4.4,3.4-6.6c0.6-1.2,1.3-2.3,1.9-3.5c0.6-1.1,1.2-2.2,1.7-3.4c0.5-1,1.1-2,1.6-3
		c0.6-1.1,1.1-2.2,1.6-3.3c0.1-0.3,0.1-0.7-0.1-0.9c-0.1-0.3-0.4-0.5-0.7-0.6c-0.1,0-0.3-0.1-0.4-0.1
		C625.2,398.7,625,398.7,624.8,398.8L624.8,398.8L624.8,398.8z M610.7,425.3c0,0.1-0.1,0.1-0.1,0.2
		C610.6,425.4,610.7,425.4,610.7,425.3L610.7,425.3L610.7,425.3z"/>
	<path class="st0" d="M640.2,411c-0.5,0.1-1.1,0.2-1.6,0.3c-0.6,0.1-1.2,0.3-1.8,0.6c-0.5,0.2-1,0.4-1.5,0.7
		c-0.5,0.3-1.1,0.7-1.5,1.1c-0.4,0.3-0.8,0.7-1.2,1.1c-0.5,0.4-0.9,0.9-1.3,1.4c-0.4,0.4-0.7,0.9-1,1.4c-0.3,0.4-0.6,0.9-0.8,1.3
		c-0.2,0.3-0.3,0.6-0.4,0.9c-0.1,0.3-0.2,0.5-0.2,0.8c-0.2,0.6-0.3,1.3-0.4,1.9c-0.1,0.5-0.2,1-0.2,1.6c0,0.7,0,1.3,0.1,2
		c0.1,0.5,0.3,1.1,0.4,1.6c0.4,1.1,0.9,2.2,1.5,3.2c0.3,0.5,0.7,1.1,1.1,1.6c0.2,0.3,0.4,0.5,0.6,0.8c0.3,0.4,0.7,0.7,1.1,1
		c0.4,0.3,0.8,0.6,1.3,0.8c0.3,0.2,0.6,0.3,0.9,0.5c0.3,0.1,0.6,0.2,0.9,0.3c0.6,0.2,1.3,0.3,1.9,0.4c0.6,0.1,1.2,0.2,1.8,0.2
		c0.6,0.1,1.1,0.1,1.7,0.1c0.6,0,1.2-0.1,1.8-0.2c1.1-0.2,2.1-0.5,3.2-0.8c1.1-0.4,2.3-0.7,3.3-1.4c0.6-0.4,1.1-0.7,1.6-1.2
		c0.5-0.4,0.9-0.9,1.3-1.4c0.7-0.9,1.2-2,1.6-3.1c0.2-0.6,0.3-1.3,0.4-1.9c0.1-0.5,0.1-1.1,0.2-1.6c0-0.6,0-1.2,0-1.8
		c-0.1-0.5-0.2-1.1-0.3-1.6c-0.2-1.1-0.6-2.1-1-3.1c-0.3-0.7-0.7-1.3-1.1-1.9c-0.4-0.6-0.9-1.2-1.4-1.7c-0.6-0.6-1.3-1.1-1.9-1.5
		c-0.2-0.1-0.3-0.3-0.5-0.4c-0.4-0.3-0.8-0.5-1.2-0.7c-0.7-0.3-1.5-0.5-2.2-0.8c-0.3-0.1-0.6-0.1-0.8,0c-0.2-0.1-0.4-0.2-0.6-0.2
		c-0.6-0.1-1.2-0.2-1.7-0.3c-0.3,0-0.5,0-0.8,0c0,0-0.1,0-0.1,0C640.8,411,640.5,411,640.2,411L640.2,411L640.2,411z M641.7,412.8
		c0,0-0.1,0-0.1,0C641.6,412.8,641.6,412.8,641.7,412.8L641.7,412.8L641.7,412.8z M643.4,412.9c0.1,0,0.2,0,0.3,0.1
		c0.1,0.4,0.4,0.8,0.8,0.9c0.6,0.2,1.2,0.4,1.8,0.7c0.7,0.4,1.2,0.8,1.8,1.3c0.3,0.3,0.7,0.5,1,0.8c0.4,0.3,0.7,0.7,1,1.1
		c0.2,0.3,0.4,0.6,0.7,0.9c0.5,0.7,0.8,1.5,1.2,2.3c0.1,0.5,0.2,1,0.3,1.5c0.1,0.5,0.2,0.9,0.2,1.4c0,1-0.1,2.1-0.2,3.1
		c-0.1,0.3-0.2,0.7-0.3,1c-0.1,0.3-0.2,0.5-0.3,0.8c-0.3,0.6-0.6,1.1-1,1.6c-0.2,0.2-0.4,0.5-0.7,0.7c-0.3,0.3-0.6,0.5-0.9,0.7
		c-0.4,0.2-0.8,0.5-1.2,0.7c-0.3,0.2-0.7,0.3-1,0.4c-1.5,0.5-3,0.9-4.6,1.1c-1.2,0-2.4-0.1-3.6-0.3c-0.8-0.2-1.6-0.4-2.4-0.8
		c-0.3-0.1-0.6-0.3-0.8-0.5c-0.3-0.2-0.6-0.5-0.9-0.7c-0.5-0.5-1-1.1-1.4-1.7c-0.6-1-1.1-1.9-1.5-3c-0.1-0.3-0.2-0.7-0.3-1
		c-0.1-0.3-0.1-0.7-0.2-1c0-0.4,0-0.8,0-1.2c0-0.5,0.1-0.9,0.2-1.4c0.1-0.4,0.2-0.8,0.3-1.1c0.1-0.4,0.2-0.7,0.4-1
		c0.5-1,1.1-1.9,1.8-2.7c0.9-1,1.9-2,3-2.8c0.7-0.5,1.5-0.8,2.3-1.1c0.9-0.3,1.8-0.5,2.7-0.6C642.1,412.8,642.7,412.8,643.4,412.9
		L643.4,412.9L643.4,412.9z"/>
	<path class="st0" d="M688.5,410.2c-0.3,0.1-0.6,0.3-0.8,0.6c-0.2,0.3-0.2,0.6-0.2,1c0.1,1.2,0.2,2.4,0.3,3.6c0.1,1,0.1,1.9,0.1,2.9
		c-0.1,1-0.1,2.1-0.2,3.1c-0.1,1.1-0.1,2.2-0.2,3.3c-0.1,1-0.3,2.1-0.4,3.1c-0.2,0.8-0.4,1.6-0.7,2.3c-0.1,0.3-0.3,0.5-0.5,0.8
		c-0.2,0.3-0.4,0.5-0.6,0.8c-0.2,0.3-0.5,0.5-0.7,0.7c-0.2,0.2-0.5,0.4-0.7,0.5c-0.3,0.2-0.6,0.4-1,0.6c-0.3,0.2-0.6,0.3-0.9,0.4
		c-0.2,0.1-0.5,0.1-0.7,0.2c-0.4,0-0.9-0.1-1.3-0.1c-0.3,0-0.6-0.1-1-0.1c-0.4-0.1-0.9-0.2-1.3-0.4c-0.3-0.2-0.6-0.4-0.9-0.6
		c-0.6-0.6-1.2-1.2-1.6-1.8c-0.5-0.9-0.9-1.8-1.3-2.7c-0.4-1.4-0.8-2.8-1.1-4.2c-0.3-1.5-0.4-2.9-0.5-4.4c-0.1-1.1-0.1-2.3-0.1-3.4
		c0-1.3,0.1-2.6,0.1-3.9c0-0.7-0.5-1.4-1.3-1.4c-0.7,0-1.4,0.5-1.4,1.3c-0.1,1.4-0.2,2.7-0.1,4.1c0,1.4,0.1,2.8,0.2,4.1
		c0.1,1.4,0.2,2.7,0.5,4.1c0.1,0.6,0.3,1.3,0.4,1.9c0.1,0.6,0.3,1.3,0.5,1.9c0.4,1.3,0.9,2.6,1.6,3.7c0.4,0.6,0.9,1.3,1.4,1.8
		c0.5,0.5,1,1,1.5,1.4c0.6,0.5,1.3,0.8,2.1,1c0.7,0.2,1.5,0.3,2.2,0.4c0.4,0,0.7,0.1,1.1,0.1c0.8,0,1.6-0.2,2.4-0.5
		c0.6-0.2,1.2-0.6,1.7-0.9c0.7-0.4,1.3-0.9,1.8-1.4c0.5-0.5,1-1.1,1.4-1.8c0.8-1.3,1.2-2.7,1.5-4.2c0.1-0.6,0.2-1.3,0.3-1.9
		c0.1-0.7,0.2-1.4,0.2-2.2c0.1-1.3,0.2-2.7,0.3-4c0.1-1.3,0.2-2.6,0.1-4c0-0.8-0.1-1.6-0.2-2.4c-0.1-0.8-0.1-1.6-0.3-2.4
		c-0.1-0.6-0.7-1.1-1.3-1.1C688.7,410.2,688.6,410.2,688.5,410.2L688.5,410.2L688.5,410.2z"/>
	<path class="st0" d="M701.6,412.2c0,1.3,0,2.5,0,3.8c0,0.7,0,1.3,0,2c0,0.6,0,1.2,0,1.8c0,1.3,0,2.6,0,3.9c0,0.6,0,1.2,0,1.8
		c0,0.6,0,1.2,0,1.8c0,1.7,0.1,3.3,0.1,5c0,0.8,0.1,1.7,0.1,2.5c0,0.5,0,1,0.1,1.6c0,0.6,0.1,1.4,0.7,1.8c0.3,0.2,0.6,0.3,1,0.2
		c0.3-0.1,0.6-0.3,0.8-0.6c0.4-0.5,0.2-1.2,0.2-1.8c0-0.5,0-1,0-1.6c0-1,0-2.1,0-3.1c0.1-2,0.1-3.9,0.5-5.9c0.3-1.2,0.7-2.3,1.1-3.4
		c0.4-1.1,0.8-2.2,1.3-3.2c0.3-0.5,0.6-1.1,1-1.6c0.2-0.3,0.5-0.5,0.8-0.7c0.3-0.2,0.7-0.4,1-0.6c0.3-0.2,0.7-0.4,1-0.5
		c0.3-0.1,0.7-0.2,1-0.2c0.4,0,0.8,0,1.2,0.1c0.6,0.1,1.2-0.4,1.3-0.9c0.2-0.7-0.1-1.5-0.8-1.7c-0.7-0.2-1.5-0.3-2.2-0.2
		c-0.6,0.1-1.3,0.2-1.8,0.5c-0.6,0.3-1.1,0.6-1.6,0.9c-0.5,0.3-1,0.7-1.5,1.1c-0.5,0.4-0.9,1-1.2,1.6c-0.3,0.5-0.6,1.1-0.9,1.7
		c-0.3,0.6-0.5,1.3-0.8,1.9c0-0.2,0-0.4,0-0.6c0-0.8,0-1.5,0-2.3c0-1.7-0.1-3.3-0.1-5c0-0.6-0.4-1.1-1-1.2c0,0,0,0-0.1,0
		C702.2,411.2,701.6,411.6,701.6,412.2L701.6,412.2L701.6,412.2z M707.6,418.6c0,0.1-0.1,0.1-0.1,0.2
		C707.6,418.8,707.6,418.7,707.6,418.6L707.6,418.6L707.6,418.6z M707.5,418.8c0,0.1-0.1,0.1-0.1,0.2
		C707.5,418.9,707.5,418.9,707.5,418.8L707.5,418.8L707.5,418.8z M704.5,436.6L704.5,436.6C704.5,436.6,704.5,436.6,704.5,436.6
		C704.5,436.6,704.5,436.6,704.5,436.6L704.5,436.6L704.5,436.6z"/>
	<path class="st0" d="M758.4,400.2c-0.7,0-1.4,0.1-2.1,0.2c-0.6,0.1-1.2,0.3-1.8,0.5c-1.1,0.4-2.2,1-3.2,1.7
		c-1.1,0.7-2.2,1.6-3.1,2.6c-0.9,1-1.7,2-2.4,3.1c-0.7,1.1-1.3,2.3-1.7,3.5c-0.9,2.6-1.1,5.4-1.2,8.1c-0.2,2.5,0.3,5,1,7.4
		c0.4,1.2,1,2.4,1.6,3.5c0.4,0.6,0.8,1.2,1.3,1.8c0.5,0.5,1,1,1.5,1.4c0.4,0.4,0.8,0.7,1.3,1.1c0.5,0.4,1.1,0.7,1.7,1
		c0.5,0.2,1,0.5,1.6,0.7c0.6,0.2,1.2,0.4,1.8,0.5c0,0,0,0,0,0c0,0,0,0,0,0c0,0,0.1,0,0.1,0c0,0-0.1,0-0.1,0c0,0,0,0,0,0
		c0,0-0.1,0-0.1,0c2.4,0.5,5,0.6,7.4-0.2c1.2-0.4,2.4-0.9,3.5-1.5c1.2-0.7,2.4-1.5,3.4-2.5c0.5-0.4,0.5-1.2,0.1-1.7
		c-0.2-0.2-0.5-0.4-0.8-0.4c-0.3,0-0.6,0.1-0.9,0.3c-0.3,0.2-0.6,0.5-1,0.7c-1.3,0.8-2.5,1.6-3.9,2.1c-0.6,0.2-1.1,0.4-1.7,0.5
		c-0.5,0.1-1.1,0.2-1.6,0.3c-1.3,0.1-2.6-0.1-3.8-0.3c-0.1,0-0.1,0-0.2,0c-0.9-0.2-1.9-0.6-2.7-1c-0.5-0.3-1-0.6-1.5-0.9
		c-0.4-0.3-0.7-0.6-1.1-0.9c-0.3-0.3-0.6-0.5-0.9-0.8c-0.3-0.3-0.6-0.6-0.8-1c-0.6-1-1.2-2-1.6-3.1c-0.2-0.7-0.4-1.4-0.6-2.2
		c-0.2-0.9-0.4-1.7-0.4-2.6c0-0.5,0-1,0-1.5c0-0.7,0.1-1.4,0.1-2.1c0.1-1.3,0.2-2.6,0.4-3.8c0.3-1.3,0.7-2.5,1.3-3.7
		c0.3-0.7,0.7-1.3,1.2-1.9c0.5-0.7,1-1.3,1.5-1.9c0.7-0.8,1.6-1.5,2.5-2.2c1-0.6,2-1.2,3.1-1.6c0.8-0.3,1.6-0.4,2.4-0.4
		c1.7-0.1,3.4,0,5.1,0.3c0.6,0.1,1.1,0.3,1.7,0.5c0.5,0.3,0.9,0.5,1.3,0.9c0.4,0.4,0.8,0.9,1.1,1.4c0.2,0.2,0.5,0.4,0.8,0.4
		c0.3,0,0.6-0.1,0.9-0.3c0.2-0.2,0.4-0.5,0.4-0.8c0-0.3-0.1-0.6-0.3-0.9c-0.4-0.5-0.8-1.1-1.2-1.5c-0.5-0.5-1.1-1-1.7-1.3
		c-1.2-0.7-2.6-1-3.9-1.2c-1-0.1-2-0.2-3-0.2C758.9,400.2,758.7,400.2,758.4,400.2L758.4,400.2L758.4,400.2z M745.6,422.2
		c0,0.1,0,0.1,0,0.2C745.6,422.3,745.6,422.3,745.6,422.2L745.6,422.2L745.6,422.2z M746.6,426.9c0,0,0,0.1,0,0.1
		C746.7,427,746.7,427,746.6,426.9L746.6,426.9L746.6,426.9z M749.9,431.7C750,431.8,750,431.8,749.9,431.7
		C750,431.8,750,431.8,749.9,431.7L749.9,431.7L749.9,431.7z M755.2,434.5C755.2,434.5,755.2,434.5,755.2,434.5
		C755.3,434.5,755.3,434.5,755.2,434.5C755.3,434.5,755.2,434.5,755.2,434.5L755.2,434.5L755.2,434.5z M755.1,437.3
		c-0.1,0-0.2,0-0.3-0.1C754.9,437.2,755,437.2,755.1,437.3L755.1,437.3L755.1,437.3z M754.8,437.2
		C754.8,437.2,754.8,437.2,754.8,437.2C754.8,437.2,754.8,437.2,754.8,437.2L754.8,437.2L754.8,437.2z M754.7,437.2
		C754.7,437.2,754.7,437.2,754.7,437.2c-0.1,0-0.2,0-0.2,0C754.6,437.2,754.7,437.2,754.7,437.2L754.7,437.2L754.7,437.2z"/>
	<path class="st0" d="M791.9,413c-0.5,0.1-1.1,0.1-1.6,0.3c-0.6,0.1-1.2,0.4-1.7,0.6c-0.5,0.2-1,0.4-1.4,0.7c-0.5,0.3-1,0.7-1.4,1.1
		c-0.4,0.4-0.8,0.9-1.2,1.3c-0.3,0.4-0.7,0.9-1,1.3c-0.3,0.4-0.6,0.9-0.8,1.4c-0.3,0.5-0.6,1.1-0.8,1.6c-0.2,0.5-0.4,1-0.5,1.6
		c-0.1,0.6-0.2,1.2-0.3,1.8c-0.1,0.5-0.1,1-0.1,1.5c-0.1,0.6-0.1,1.3,0,1.9c0.1,1,0.3,2.1,0.6,3.1c0.3,1.1,0.7,2.1,1.2,3.1
		c0.3,0.5,0.6,1,1,1.5c0.3,0.4,0.7,0.8,1.1,1.2c0.4,0.4,1,0.8,1.5,1.2c0.4,0.3,0.9,0.6,1.4,0.9c0.5,0.3,1.1,0.5,1.6,0.7
		c0.6,0.2,1.2,0.3,1.8,0.4c0.3,0,0.6,0.1,0.8,0.1c0.5,0.1,1.1,0.1,1.6,0c0.5,0,1.1-0.1,1.6-0.2c0.5-0.1,1-0.3,1.5-0.5
		c1-0.4,1.9-0.9,2.8-1.5c0.5-0.3,0.9-0.7,1.3-1.1c0.4-0.4,0.8-0.9,1.2-1.4c0.3-0.4,0.6-0.8,0.8-1.2c0.3-0.5,0.5-1,0.7-1.5
		c0.4-1,0.7-1.9,0.8-3c0.1-1,0.3-2,0.4-3c0.1-0.8,0-1.7-0.1-2.5c-0.1-0.8-0.2-1.6-0.4-2.3c-0.3-0.8-0.6-1.7-1.1-2.4
		c-0.5-0.9-1.1-1.7-1.7-2.4c-0.1-0.2-0.4-0.3-0.6-0.2c0.1-0.3,0.1-0.6-0.1-0.8c-0.3-0.4-0.6-0.8-0.9-1.1c-0.2-0.3-0.5-0.5-0.8-0.7
		c-0.3-0.2-0.5-0.3-0.8-0.4c-0.5-0.2-0.9-0.4-1.4-0.6c-0.5-0.2-1-0.3-1.5-0.4c-0.6-0.1-1.1-0.2-1.7-0.2c0,0-0.1,0-0.1,0
		C792.8,413,792.3,413,791.9,413L791.9,413L791.9,413z M794.6,414.9c0.4,0,0.8,0.1,1.2,0.2c0.7,0.2,1.5,0.4,2.2,0.7
		c0.2,0.1,0.4,0.2,0.6,0.4c0.3,0.3,0.6,0.7,1,1.1c0.2,0.2,0.4,0.3,0.6,0.2c-0.1,0.2-0.2,0.5,0,0.7c0.2,0.4,0.5,0.7,0.7,1.1
		c0.2,0.3,0.4,0.7,0.7,1c0.2,0.3,0.4,0.7,0.6,1c0.1,0.3,0.3,0.6,0.4,1c0.2,0.5,0.3,1,0.4,1.5c0.1,0.5,0.1,0.9,0.2,1.4
		c0.1,0.9,0,1.7,0,2.6c0,0.5-0.1,0.9-0.2,1.4c-0.1,0.4-0.1,0.9-0.2,1.3c-0.1,0.3-0.1,0.7-0.3,1c-0.1,0.4-0.3,0.8-0.5,1.1
		c0-0.1,0.1-0.1,0.1-0.2c-0.2,0.4-0.4,0.8-0.7,1.2c-0.3,0.4-0.7,0.9-1,1.3c0.1-0.1,0.1-0.1,0.2-0.2c-0.3,0.4-0.7,0.7-1.1,1
		c-0.2,0.2-0.5,0.3-0.8,0.5c-0.3,0.2-0.6,0.3-0.9,0.4c-0.6,0.3-1.2,0.5-1.9,0.7c-0.5,0.1-0.9,0.3-1.4,0.3c-0.6,0-1.1,0-1.7,0
		c-0.5,0-1-0.1-1.4-0.2c-0.4-0.1-0.7-0.2-1.1-0.3c-0.4-0.1-0.7-0.3-1.1-0.5c-0.4-0.2-0.7-0.4-1.1-0.6c-0.3-0.2-0.6-0.5-1-0.7
		c-0.6-0.5-1.1-1.1-1.6-1.7c-0.5-0.8-0.9-1.5-1.2-2.4c-0.4-1.2-0.6-2.4-0.8-3.6c0-0.7,0-1.4,0.1-2c0.1-0.7,0.1-1.4,0.2-2
		c0.1-0.3,0.1-0.6,0.2-0.9c0.1-0.3,0.3-0.7,0.4-1c0.4-0.7,0.8-1.4,1.2-2.1c0.4-0.7,1-1.4,1.5-2c0.2-0.2,0.5-0.5,0.7-0.7
		c0.2-0.2,0.5-0.4,0.7-0.6c0.6-0.4,1.3-0.7,2-0.9c1-0.3,2-0.5,3-0.6C793.9,414.9,794.2,414.9,794.6,414.9L794.6,414.9L794.6,414.9z
		 M793.6,414.9C793.6,414.9,793.5,414.9,793.6,414.9C793.5,414.9,793.6,414.9,793.6,414.9L793.6,414.9L793.6,414.9z M793.5,414.9
		c-0.1,0-0.1,0-0.2,0C793.4,414.9,793.4,414.9,793.5,414.9L793.5,414.9L793.5,414.9z M795.7,415.1
		C795.7,415.1,795.7,415.1,795.7,415.1C795.7,415.1,795.7,415.1,795.7,415.1L795.7,415.1L795.7,415.1z M795.8,415.1c0,0,0.1,0,0.1,0
		C795.8,415.1,795.8,415.1,795.8,415.1L795.8,415.1L795.8,415.1z M790.7,415.4C790.7,415.4,790.7,415.4,790.7,415.4
		C790.7,415.4,790.7,415.4,790.7,415.4L790.7,415.4L790.7,415.4z M784.3,422c0,0,0,0.1-0.1,0.1C784.3,422.1,784.3,422,784.3,422
		L784.3,422L784.3,422z M802.9,425.4C802.9,425.4,802.9,425.4,802.9,425.4C802.9,425.4,802.9,425.4,802.9,425.4L802.9,425.4
		L802.9,425.4z"/>
	<path class="st0" d="M817.5,411.4c-0.3,0.1-0.4,0.3-0.5,0.6c-0.3,0.6-0.5,1.1-0.7,1.7c-0.2,0.6-0.3,1.1-0.5,1.7
		c-0.3,1.3-0.4,2.7-0.6,4c-0.1,1.2-0.1,2.5-0.1,3.7c0,0.7,0.1,1.4,0.2,2.2c0.1,0.6,0.2,1.2,0.3,1.8c0.2,1.2,0.5,2.5,0.8,3.7
		c0.2,0.6,0.3,1.1,0.5,1.7c0.2,0.7,0.5,1.4,0.7,2c0.6,1.5,1.8,2.7,3.1,3.5c1.1,0.7,2.3,1.3,3.6,1.7c0.7,0.2,1.4,0.3,2.1,0.4
		c0.5,0.1,0.9,0,1.4,0c0.5-0.1,1-0.3,1.4-0.4c0.6-0.2,1.2-0.6,1.7-1c0.5-0.3,1-0.8,1.4-1.2c0.4-0.4,0.8-0.8,1.2-1.3
		c0.5-0.6,1-1.2,1.4-1.8c0.4-0.5,0.7-1,1-1.6c0.3-0.6,0.6-1.2,0.9-1.9c0.5-1.1,0.8-2.3,1.1-3.5c0.3-1.3,0.5-2.6,0.7-3.9
		c0.2-1.2,0.4-2.5,0.5-3.7c0.1-1.3,0.2-2.6,0.2-3.9c0-0.4,0-0.9-0.1-1.3c-0.1-0.7-0.9-1.2-1.6-1c-0.3,0.1-0.6,0.3-0.8,0.6
		c-0.2,0.3-0.2,0.6-0.2,0.9c0,0,0,0,0,0c0,0,0,0,0,0c0,0,0,0,0,0c0.1,0.9,0,1.9-0.1,2.8c-0.1,1-0.1,2-0.3,3
		c-0.1,0.9-0.3,1.8-0.4,2.7c-0.2,0.8-0.3,1.6-0.5,2.5c-0.4,1.7-0.8,3.4-1.6,4.9c-0.6,1.2-1.3,2.3-2.2,3.3c-0.8,0.9-1.6,1.7-2.6,2.4
		c-0.4,0.2-0.8,0.5-1.2,0.6c-0.2,0.1-0.4,0.1-0.6,0.1c-0.4,0-0.8,0-1.2-0.1c-0.4-0.1-0.9-0.2-1.3-0.3c-0.5-0.2-1-0.4-1.4-0.6
		c-0.8-0.4-1.5-0.9-2.2-1.4c-0.3-0.3-0.5-0.6-0.8-0.9c-0.6-0.9-0.9-1.9-1.3-2.9c-0.4-1.3-0.7-2.6-1-3.9c-0.3-1.3-0.5-2.7-0.7-4.1
		c-0.1-1.2-0.1-2.3,0-3.5c0.1-1.3,0.2-2.5,0.4-3.7c0.1-0.5,0.2-1.1,0.4-1.6c0.2-0.7,0.5-1.3,0.8-1.9c0.1-0.2,0.1-0.6-0.1-0.8
		c-0.1-0.2-0.3-0.4-0.6-0.5c-0.1,0-0.2-0.1-0.3-0.1C817.8,411.3,817.7,411.4,817.5,411.4L817.5,411.4L817.5,411.4z M835.5,426.3
		c0,0,0,0.1,0,0.1C835.5,426.3,835.5,426.3,835.5,426.3L835.5,426.3L835.5,426.3z M823.4,436.6C823.4,436.6,823.5,436.6,823.4,436.6
		C823.5,436.6,823.4,436.6,823.4,436.6L823.4,436.6L823.4,436.6z"/>
	<path class="st0" d="M859.7,409.8c-1.3,0.2-2.6,0.6-3.7,1.3c-1.2,0.7-2.3,1.7-3.4,2.7c-0.5,0.5-1,1-1.5,1.6
		c-0.4,0.6-0.8,1.2-1.1,1.9c-0.6,1.2-0.9,2.6-1.1,3.9c-0.4,2.8-0.7,5.8,0.4,8.4c0.6,1.4,1.3,2.6,2.2,3.8c0.4,0.6,0.8,1,1.4,1.5
		c0.5,0.5,1.1,1,1.7,1.3c1.2,0.8,2.5,1.2,3.9,1.6c0.7,0.2,1.5,0.3,2.2,0.4c0.7,0.1,1.4,0.2,2.2,0.2c0.6,0,1.3-0.1,1.9-0.2
		c0.3-0.1,0.6-0.1,1-0.2c0.7-0.2,1.4-0.6,2.1-0.9c0.9-0.5,1.8-1.1,2.6-1.8c0.2-0.2,0.4-0.3,0.6-0.5c0.3-0.3,0.6-0.7,0.9-1
		c0.3-0.3,0.6-0.7,0.9-1.1c0.4-0.6,0.2-1.4-0.4-1.8c-0.3-0.2-0.6-0.3-1-0.2c-0.4,0.1-0.6,0.3-0.8,0.5c-0.1,0.1-0.1,0.2-0.2,0.2
		c-0.3,0.4-0.7,0.8-1,1.1c-0.2,0.2-0.5,0.4-0.8,0.7c-0.2,0.2-0.5,0.4-0.7,0.6c-0.9,0.6-1.9,1.1-2.9,1.5c-0.6,0.2-1.2,0.3-1.8,0.4
		c-0.6,0-1.3-0.1-1.9-0.2c-0.4-0.1-0.9-0.1-1.3-0.2c-0.6-0.1-1.2-0.3-1.8-0.5c-0.5-0.2-1.1-0.4-1.6-0.6c-0.5-0.3-1-0.7-1.5-1.1
		c-0.3-0.3-0.6-0.5-0.8-0.8c-0.3-0.3-0.6-0.7-0.8-1c-0.6-1-1.2-2-1.7-3.1c-0.1-0.3-0.2-0.6-0.3-0.9c-0.1-0.4-0.1-0.8-0.2-1.2
		c0-0.9,0-1.8,0.1-2.7c0.1-0.9,0.2-1.8,0.3-2.7c0.1-0.5,0.2-0.9,0.4-1.3c0.2-0.5,0.3-0.9,0.5-1.4c0.3-0.6,0.6-1.1,1-1.6
		c1-1.1,2.2-2.1,3.4-2.9c0,0,0,0,0,0c0.5-0.3,1-0.5,1.5-0.7c1.1-0.4,2.2-0.5,3.4-0.7c1,0,2.1,0.1,3.1,0.2c0.8,0.2,1.7,0.4,2.4,0.7
		c0.3,0.2,0.6,0.4,0.9,0.6c0.2,0.2,0.5,0.4,0.7,0.7c0.2,0.2,0.4,0.5,0.6,0.7c0.4,0.6,0.7,1.2,1,1.9c0.1,0.3,0.4,0.5,0.7,0.6
		c0.3,0.1,0.7,0.1,1-0.1c0.3-0.1,0.5-0.4,0.6-0.7c0.1-0.3,0.1-0.6-0.1-1c-0.5-1.2-1.1-2.4-2-3.4c-0.8-1-1.8-1.7-3-2.1
		c-1.3-0.5-2.7-0.8-4.1-0.9c-0.4,0-0.8-0.1-1.2-0.1C861.6,409.6,860.7,409.7,859.7,409.8L859.7,409.8L859.7,409.8z M857.3,413.5
		C857.3,413.5,857.2,413.5,857.3,413.5C857.2,413.5,857.3,413.5,857.3,413.5L857.3,413.5L857.3,413.5z M857,413.7
		C857,413.7,857,413.7,857,413.7c-0.2,0.1-0.2,0.1-0.3,0.2C856.8,413.8,856.9,413.7,857,413.7L857,413.7L857,413.7z M852.7,418
		c0,0.1-0.1,0.2-0.1,0.2c0,0,0,0.1,0,0.1C852.6,418.2,852.7,418.1,852.7,418L852.7,418L852.7,418z M851.7,421c0,0.1,0,0.1,0,0.2
		C851.7,421.1,851.7,421,851.7,421L851.7,421L851.7,421z M870.4,431.7C870.4,431.7,870.4,431.8,870.4,431.7
		C870.4,431.8,870.4,431.7,870.4,431.7L870.4,431.7L870.4,431.7z M859.8,435.3c0.1,0,0.1,0,0.2,0
		C859.9,435.4,859.9,435.4,859.8,435.3L859.8,435.3L859.8,435.3z"/>
	<path class="st0" d="M882.7,393.1c-0.3,0.1-0.6,0.3-0.8,0.5c-0.2,0.3-0.2,0.6-0.2,0.9c0,0.3,0.1,0.6,0.1,1c0,0.6,0.1,1.2,0.1,1.8
		c0,0.7,0,1.3,0,2c0,1.3,0,2.6,0,4c0,1.3-0.1,2.6-0.1,3.9c-0.1,1.4-0.1,2.8-0.1,4.2c0,1.3,0,2.6,0,3.9c0.1,1.3,0.1,2.7,0.1,4
		c0,1.4,0,2.7,0.1,4.1c0,1.3,0.1,2.6,0.1,3.9c0,1.6-0.1,3.2-0.2,4.8c0,0.8-0.1,1.6-0.1,2.4c0,0.8-0.1,1.6,0.1,2.4
		c0.1,0.7,0.9,1.1,1.5,1c0.6-0.1,1-0.6,1-1.2c0,0,0,0,0,0c0.1-0.6,0.1-1.2,0.1-1.7c0-0.1,0-0.2,0-0.3c0.1-0.9,0.1-1.7,0.2-2.6
		c0-0.9,0.1-1.7,0.2-2.6c0.1-0.7,0.2-1.4,0.3-2.1c0.2-1,0.5-2.1,0.8-3.1c0.3-0.9,0.6-1.8,1-2.7c0.4-0.8,0.8-1.6,1.3-2.3
		c0.4-0.7,0.8-1.5,1.4-2.1c0.8-0.8,1.6-1.6,2.5-2.3c0.7-0.4,1.4-0.8,2.2-1.1c0.8-0.3,1.7-0.5,2.6-0.6c0.4,0,0.9,0,1.3,0.1
		c0.3,0.1,0.5,0.1,0.7,0.2c0.3,0.2,0.7,0.4,0.9,0.6c0.3,0.2,0.5,0.5,0.7,0.8c0.6,0.9,1,1.8,1.3,2.8c0,0.1,0,0.1,0.1,0.2
		c0-0.1,0-0.1-0.1-0.2c0.2,0.6,0.3,1.2,0.5,1.8c0.2,0.6,0.3,1.3,0.4,1.9c0.2,1.3,0.3,2.5,0.4,3.8c0,0.4,0.1,0.8,0.1,1.2
		c0,0.2,0,0.5,0,0.7c0,0,0-0.1,0-0.1c0,0.7,0.1,1.3,0.1,2c0-0.1,0-0.2,0-0.4c0.1,1.3,0.2,2.6,0.3,3.9c0.1,1.9,0.1,3.8,0.1,5.8
		c0,0.7,0.5,1.4,1.2,1.4c0.7,0,1.4-0.5,1.4-1.2c0-0.8,0.1-1.7,0.1-2.5c0-0.7,0-1.5,0-2.2c0-1.5-0.2-2.9-0.3-4.4
		c0-0.4-0.1-0.8-0.1-1.3c0,0.1,0,0.2,0,0.4c0-0.5-0.1-1.1-0.1-1.6c0-0.5-0.1-1-0.1-1.5c0,0,0,0,0,0c-0.1-1.4-0.3-2.7-0.4-4.1
		c-0.1-0.7-0.2-1.4-0.4-2.1c-0.2-0.7-0.4-1.5-0.6-2.2c-0.4-1.1-0.8-2.2-1.5-3.2c-0.2-0.3-0.4-0.6-0.6-0.8c-0.3-0.3-0.5-0.6-0.8-0.8
		c-0.5-0.4-1.1-0.8-1.7-1.1c-0.7-0.3-1.4-0.4-2.1-0.5c-0.3,0-0.6,0-0.8,0c-0.4,0-0.8,0.1-1.2,0.1c-1.3,0.2-2.7,0.7-3.9,1.3
		c-1.2,0.6-2.3,1.5-3.3,2.5c-0.5,0.5-1,1.1-1.5,1.7c-0.4,0.5-0.6,1-0.9,1.6c-0.5,1-1.1,1.9-1.6,2.9c0-1.2-0.1-2.5-0.1-3.7
		c-0.1-1.3-0.1-2.6-0.1-3.8c0-1.4,0-2.7,0-4.1c0-1.3,0.1-2.6,0.1-4c0-0.9,0-1.7,0-2.6c0-0.9,0-1.8,0-2.7c0-0.9,0-1.8-0.1-2.7
		c0-1-0.1-2-0.2-3c0-0.3-0.3-0.6-0.5-0.8c-0.2-0.1-0.4-0.2-0.7-0.2C882.9,393.1,882.8,393.1,882.7,393.1L882.7,393.1L882.7,393.1z
		 M906.1,425.7c0,0,0,0.1,0,0.1C906.1,425.8,906.1,425.7,906.1,425.7L906.1,425.7L906.1,425.7z M903.5,427.4c0,0,0,0.1,0,0.1
		C903.5,427.5,903.5,427.5,903.5,427.4L903.5,427.4L903.5,427.4z M904.6,417.1c0,0.1,0,0.1,0.1,0.2c0-0.1-0.1-0.2-0.1-0.3
		C904.6,417,904.6,417,904.6,417.1L904.6,417.1L904.6,417.1z"/>
	<path class="st0" d="M452.9,468c-0.2,0-0.4,0-0.6,0c-0.1,0-0.1,0-0.2,0c-2.1,0-4.3,0-6.4,0c-0.1,0-0.3,0-0.4,0.1
		c-0.1,0-0.2,0.1-0.3,0.1c-0.3,0.2-0.5,0.5-0.6,0.8c0,0,0,0,0,0c0,0.1,0,0.2,0,0.3c0,0.4,0.1,0.7,0.4,1c0.2,0.2,0.4,0.3,0.6,0.4
		c0,0,0.1,0,0.1,0c0.1,0,0.2,0,0.3,0c2.1,0,4.3,0,6.4,0c0.1,0,0.2,0,0.3,0c0.4,0,0.9,0,1.3,0c0.7,0,1.3,0,2,0c8.2,0,16.3,0,24.5,0
		c7.5,0,14.9,0,22.4,0c3.3,0,6.7,0,10,0c5.8,0,11.6,0,17.4,0c28.6,0,57.3,0,85.9,0c59.5,0,119,0,178.5,0c0.6,0,1.2,0,1.8,0
		c34.9,0,69.9,0,104.8,0c0.3,0,0.7,0,1,0c2.2,0,4.4,0,6.7,0c0.8,0,1.6,0,2.4,0c1.2,0,2.4-0.1,3.6-0.2c0.7,0,1.2-0.5,1.2-1.2
		c0-0.7-0.5-1.2-1.2-1.2c-0.6,0-1.3-0.1-1.9-0.1c-0.7,0-1.4,0-2.1-0.1c-1.4,0-2.7,0-4.1,0c-1.8,0-3.7,0-5.5,0c-0.7,0-1.4,0-2.1,0
		c-2.9,0-5.7,0-8.6,0c-50.8,0-101.5,0-152.3,0c-59.4,0-118.8,0-178.2,0c-4.2,0-8.3,0-12.5,0c-15.9,0-31.8,0-47.7,0
		c-13.8,0-27.5,0-41.3,0c-0.9,0-1.9,0-2.8,0C454.7,468,453.8,468,452.9,468L452.9,468L452.9,468z"/>
</g>
</svg>
